<svg id="Group_5947" data-name="Group 5947" xmlns="http://www.w3.org/2000/svg" viewBox="0 0 174 89.5"><defs><style>.cls-1{fill:#b2b2b2;}.cls-2{fill:#645049;}.cls-3{fill:#e7e7e7;}.cls-4{fill:#f7b024;}.cls-5{fill:#cecece;}.cls-6{fill:#88b6b3;}.cls-7{fill:none;stroke:#153a44;stroke-linejoin:round;stroke-width:0.75px;opacity:0.5;}.cls-11,.cls-12,.cls-14,.cls-19,.cls-7{isolation:isolate;}.cls-8{opacity:0.9;}.cls-9{fill:#4688b8;}.cls-10{fill:#f7d131;}.cls-11{fill:#e8c221;opacity:0.7;}.cls-12{fill:#6b97d8;}.cls-12,.cls-14,.cls-15{opacity:0.3;}.cls-13{fill:#3d3d3c;}.cls-14{fill:#985b24;}.cls-16{fill:#f7d433;}.cls-17{fill:#c8c8c8;}.cls-18{fill:#877e6d;}.cls-19,.cls-26{fill:#e29423;}.cls-19,.cls-25{opacity:0.4;}.cls-20{fill:#414246;}.cls-21{fill:#3e3f43;}.cls-22{fill:#60626e;}.cls-23{fill:#cbcbcb;}.cls-24{fill:#595954;}.cls-27{fill:#f7dd4f;}.cls-28{fill:#63635e;}</style></defs><path id="Path_82" data-name="Path 82" class="cls-1" d="M147.09,88.34c0,.64-31.46,1.17-70.27,1.17S6.56,89,6.56,88.34,38,87.17,76.82,87.17,147.09,87.69,147.09,88.34Z" transform="translate(0 0)"/><g id="Group_27" data-name="Group 27"><g id="Group_1" data-name="Group 1"><path id="Path_1" data-name="Path 1" class="cls-2" d="M169.14,60.5a.93.93,0,0,0,.88-.62l3.27-9.37a.93.93,0,0,0-.57-1.18l-.07,0-10-2.68a.93.93,0,1,0-.48,1.79l9.08,2.42-2.94,8.43a.92.92,0,0,0,.57,1.18,1.07,1.07,0,0,0,.3.06Z" transform="translate(0 0)"/></g><g id="Group_2" data-name="Group 2"><rect id="Rectangle_1" data-name="Rectangle 1" class="cls-3" x="125.15" y="19.92" width="24.92" height="1.44" transform="translate(93.1 152.47) rotate(-79.88)"/></g><g id="Group_3" data-name="Group 3"><rect id="Rectangle_2" data-name="Rectangle 2" class="cls-4" x="121.6" y="43.44" width="23.5" height="2.06" transform="translate(66.13 167.93) rotate(-79.88)"/></g><g id="Group_4" data-name="Group 4"><rect id="Rectangle_3" data-name="Rectangle 3" class="cls-4" x="152.21" y="2.91" width="2.06" height="27.58" transform="translate(10.79 75.59) rotate(-28.68)"/></g><g id="Group_5" data-name="Group 5"><rect id="Rectangle_4" data-name="Rectangle 4" class="cls-5" x="165.02" y="27.29" width="1.44" height="24.53" transform="translate(1.35 84.41) rotate(-28.69)"/></g><g id="Group_6" data-name="Group 6"><path id="Path_2" data-name="Path 2" class="cls-6" d="M129.66,60.67,123.48,20H93.74L81.66,54l1.15,8.45,17.4,1.23Z" transform="translate(0 0)"/><path id="Path_3" data-name="Path 3" class="cls-7" d="M129.66,60.67,123.48,20H93.74L81.66,54l1.15,8.45,17.4,1.23Z" transform="translate(0 0)"/></g><g id="Group_7" data-name="Group 7" class="cls-8"><path id="Path_4" data-name="Path 4" class="cls-9" d="M119.52,60v-.6L97,23.48H94.5L90.18,35.7,104.4,60Z" transform="translate(0 0)"/></g><g id="Group_11" data-name="Group 11"><path id="Path_5" data-name="Path 5" class="cls-10" d="M131.28,56l10.9-37.27,7.88,2.34L140.84,56h0V73.18H112.62V56Z" transform="translate(0 0)"/><path id="Path_6" data-name="Path 6" class="cls-11" d="M138.18,68.24v-14l9.93-33.69,1.94.58L140.84,56V73.18H112.62l-1-5Z" transform="translate(0 0)"/><path id="Path_7" data-name="Path 7" class="cls-12" d="M142.18,18.77l7.87,2.34L147,32.87l-5.23-12.53Z" transform="translate(0 0)"/><g id="Group_8" data-name="Group 8"><path id="Path_8" data-name="Path 8" class="cls-10" d="M85.2,44.37l7.47-26.23h31.51L130.7,76.9h-84l3.45-30.16Zm43.1,24.5-5.72-46.21H93.91L83.28,52.36l.14,16.51Z" transform="translate(0 0)"/><rect id="Rectangle_5" data-name="Rectangle 5" class="cls-13" x="112.62" y="20.34" width="5.83" height="41.12"/></g><g id="Group_9" data-name="Group 9"><path id="Path_9" data-name="Path 9" class="cls-10" d="M159.61,59l6.48-2.5L146.36,0,135.63,3.36Z" transform="translate(0 0)"/></g><g id="Group_10" data-name="Group 10"><path id="Path_10" data-name="Path 10" class="cls-10" d="M31.06,76.21,55.74,51.58,77.8,55.13l-.38-12.38-19.35-.53-6.26.56L24.3,71.23Z" transform="translate(0 0)"/><path id="Path_11" data-name="Path 11" class="cls-14" d="M55.46,48.88,77.8,50.34l-.37,3.47L55.81,52.47,31.06,76.21l-1.74-1.28Z" transform="translate(0 0)"/><path id="Path_12" data-name="Path 12" class="cls-14" d="M33.16,62.07l1,11.17-3.32,3L31.28,64Z" transform="translate(0 0)"/></g></g><rect id="Rectangle_6" data-name="Rectangle 6" class="cls-13" x="60.5" y="64.02" width="20.15" height="12.88"/><path id="Path_13" data-name="Path 13" class="cls-13" d="M93.92,22.66l-10.5,29.7v8.43H127l-5.3-38.13Zm-2.19-3.09h32.61l.38,2.66L130,60.37l.48,3.52H80.33V51.83l.18-.5L91,21.63l.73-2.06Z" transform="translate(0 0)"/><g id="Group_14" data-name="Group 14" class="cls-15"><g id="Group_12" data-name="Group 12"><path id="Path_14" data-name="Path 14" class="cls-13" d="M99.09,40.48l.8-.94c-.12-.1-3-2.5-4.6-3.68l-.72,1C96.18,38,99.06,40.46,99.09,40.48Z" transform="translate(0 0)"/></g><g id="Group_13" data-name="Group 13"><rect id="Rectangle_7" data-name="Rectangle 7" class="cls-13" x="94.59" y="39.15" width="3.21" height="0.62" transform="translate(6.09 91.33) rotate(-52.23)"/></g><path id="Path_15" data-name="Path 15" class="cls-13" d="M89,36.36l7.8,4.37-3.9,7.94-6.25,2V61.46H82.05V49Z" transform="translate(0 0)"/></g><rect id="Rectangle_8" data-name="Rectangle 8" class="cls-13" x="79.35" y="59.04" width="20.15" height="17.86"/><path id="Path_16" data-name="Path 16" class="cls-13" d="M81,68.19V79.25H97.84V68.19Zm-1.64-1.65H99.49V80.9H79.35V66.54Z" transform="translate(0 0)"/><rect id="Rectangle_9" data-name="Rectangle 9" class="cls-10" x="68.78" y="63.66" width="38.52" height="2.29"/><g id="Group_15" data-name="Group 15"><path id="Path_17" data-name="Path 17" class="cls-13" d="M136.11,67.15a21.3,21.3,0,1,0-21.3,21.3,21.31,21.31,0,0,0,21.3-21.3Z" transform="translate(0 0)"/><path id="Path_18" data-name="Path 18" class="cls-16" d="M114.8,82.59A15.44,15.44,0,1,0,99.36,67.15,15.44,15.44,0,0,0,114.8,82.59Z" transform="translate(0 0)"/></g><path id="Path_19" data-name="Path 19" class="cls-10" d="M125.56,19.1H89.43l1.43-2.92H125Z" transform="translate(0 0)"/><path id="Path_20" data-name="Path 20" class="cls-13" d="M89.43,18.88h36.13l-1,2.92H90.66Z" transform="translate(0 0)"/><path id="Path_21" data-name="Path 21" class="cls-17" d="M59,52.61a1.26,1.26,0,0,1-1,1.22l-3,.55a1.2,1.2,0,0,1-1.33-.79L49.38,40.24a.84.84,0,0,1,.5-1.09.73.73,0,0,1,.2,0l7.67-1.25a.88.88,0,0,1,1,.69,1.09,1.09,0,0,1,0,.18Z" transform="translate(0 0)"/><path id="Path_22" data-name="Path 22" class="cls-18" d="M78.87,46.83a2.33,2.33,0,1,0-2.33,2.33,2.33,2.33,0,0,0,2.33-2.33Z" transform="translate(0 0)"/><path id="Path_23" data-name="Path 23" class="cls-18" d="M52.56,40a1.89,1.89,0,1,0-1.89,1.89A1.89,1.89,0,0,0,52.56,40Z" transform="translate(0 0)"/><path id="Path_24" data-name="Path 24" class="cls-3" d="M51.41,53.36A1.63,1.63,0,1,0,49.78,55a1.63,1.63,0,0,0,1.63-1.63Z" transform="translate(0 0)"/><path id="Path_25" data-name="Path 25" class="cls-18" d="M78.87,57.32a2.33,2.33,0,1,0-2.33,2.34,2.33,2.33,0,0,0,2.33-2.34Z" transform="translate(0 0)"/><path id="Path_26" data-name="Path 26" class="cls-19" d="M114.8,63a5.5,5.5,0,1,1-5.5,5.5h0A5.5,5.5,0,0,1,114.8,63Z" transform="translate(0 0)"/><path id="Path_27" data-name="Path 27" class="cls-13" d="M114.8,61.66a5.5,5.5,0,1,1-5.5,5.5h0A5.5,5.5,0,0,1,114.8,61.66Z" transform="translate(0 0)"/><path id="Path_28" data-name="Path 28" class="cls-18" d="M77.14,63.66V41a1,1,0,0,1,1-1h5.4a.68.68,0,0,1,.74.61.56.56,0,0,1-.06.36l-3.2,9.07-.46,1.3a2.47,2.47,0,0,0-.11.67V63.66Z" transform="translate(0 0)"/><g id="Group_16" data-name="Group 16"><rect id="Rectangle_10" data-name="Rectangle 10" class="cls-3" x="55.44" y="47.83" width="1.44" height="12.88" transform="translate(-5.47 102.22) rotate(-81.91)"/></g><g id="Group_17" data-name="Group 17"><rect id="Rectangle_11" data-name="Rectangle 11" class="cls-18" x="69.31" y="48.37" width="2.06" height="15.77" transform="matrix(0.14, -0.99, 0.99, 0.14, 5.04, 118.28)"/></g><g id="Group_18" data-name="Group 18"><path id="Path_29" data-name="Path 29" class="cls-13" d="M76.19,71.05A17.43,17.43,0,1,0,58.76,88.47h0A17.43,17.43,0,0,0,76.19,71.05Z" transform="translate(0 0)"/><path id="Path_30" data-name="Path 30" class="cls-16" d="M58.76,82.28A11.23,11.23,0,1,0,47.53,71.05,11.23,11.23,0,0,0,58.76,82.28Z" transform="translate(0 0)"/></g><path id="Path_31" data-name="Path 31" class="cls-19" d="M58.76,68.3a3.46,3.46,0,1,1-3.46,3.46h0A3.46,3.46,0,0,1,58.76,68.3Z" transform="translate(0 0)"/><path id="Path_32" data-name="Path 32" class="cls-13" d="M58.76,67.23a3.46,3.46,0,1,1-3.46,3.46h0A3.46,3.46,0,0,1,58.76,67.23Z" transform="translate(0 0)"/><g id="Group_19" data-name="Group 19"><rect id="Rectangle_12" data-name="Rectangle 12" class="cls-5" x="29.31" y="50.33" width="9.59" height="1.44" transform="translate(-22.58 27.47) rotate(-33.67)"/></g><g id="Group_20" data-name="Group 20"><rect id="Rectangle_13" data-name="Rectangle 13" class="cls-18" x="36.83" y="43.18" width="15.1" height="2.06" transform="translate(-17.06 32.01) rotate(-33.66)"/></g><path id="Path_33" data-name="Path 33" class="cls-3" d="M51.3,40A.63.63,0,1,0,50,40a.63.63,0,1,0,1.26,0Z" transform="translate(0 0)"/><path id="Path_34" data-name="Path 34" class="cls-20" d="M33.16,51.54l-2.52,30-15.31-.19L0,75l.28-1.49,4.52-.28L26.9,57.69l2-6.84Z" transform="translate(0 0)"/><path id="Path_35" data-name="Path 35" class="cls-2" d="M33.84,52.79a3,3,0,1,0-3.05,3,3,3,0,0,0,3.05-3Z" transform="translate(0 0)"/><path id="Path_36" data-name="Path 36" class="cls-5" d="M31.68,52.47a.89.89,0,1,0-.89.89h0a.89.89,0,0,0,.89-.89Z" transform="translate(0 0)"/><path id="Path_37" data-name="Path 37" class="cls-3" d="M77.43,46.83a.89.89,0,1,0-.89.89h0A.89.89,0,0,0,77.43,46.83Z" transform="translate(0 0)"/><path id="Path_38" data-name="Path 38" class="cls-3" d="M77.43,57.32a.89.89,0,1,0-.89.89h0a.89.89,0,0,0,.89-.89Z" transform="translate(0 0)"/><path id="Path_39" data-name="Path 39" class="cls-21" d="M145.77,70.37l-2.94-.94-.51,1.5,4.52,3,5.26.41c4.82.69,10.47.61,13.53-1.86,5.61-4.53,6-13.42,1.44-19Z" transform="translate(0 0)"/><path id="Path_40" data-name="Path 40" class="cls-22" d="M163.24,69.67c-2,1.57-6.4,2.06-11.66,1.3h-.07l-5.86-.53,18.72-14.84c1,1.93,2.76,4.34,2.62,6.56a10.21,10.21,0,0,1-3.67,7.45Z" transform="translate(0 0)"/><path id="Path_41" data-name="Path 41" class="cls-2" d="M160.39,49.05a2.5,2.5,0,1,1,3.5.46,2.5,2.5,0,0,1-3.5-.46Z" transform="translate(0 0)"/><path id="Path_42" data-name="Path 42" class="cls-21" d="M169.75,51.76a2.37,2.37,0,1,1,3.32.44h0A2.37,2.37,0,0,1,169.75,51.76Z" transform="translate(0 0)"/><path id="Path_43" data-name="Path 43" class="cls-23" d="M161.47,48.22a1.13,1.13,0,1,1,1.8-1.38,1.12,1.12,0,0,1-.21,1.58h0A1.14,1.14,0,0,1,161.47,48.22Z" transform="translate(0 0)"/><path id="Path_44" data-name="Path 44" class="cls-24" d="M145.1,14.68a.61.61,0,0,0,.81.32l1.06-.45a.61.61,0,0,0,.32-.81h0l-2.64-6.08a.63.63,0,0,0-.82-.33l-1.06.45a.62.62,0,0,0-.32.81h0Z" transform="translate(0 0)"/><g id="Group_21" data-name="Group 21" class="cls-25"><path id="Path_45" data-name="Path 45" class="cls-26" d="M114.8,55.69a11.46,11.46,0,1,0,11.46,11.46h0A11.48,11.48,0,0,0,114.8,55.69Zm0-1.88a13.35,13.35,0,1,1-13.34,13.34A13.34,13.34,0,0,1,114.8,53.81Z" transform="translate(0 0)"/></g><path id="Path_46" data-name="Path 46" class="cls-27" d="M103.37,68a11.46,11.46,0,0,0,22.86,0h1.89a13.35,13.35,0,0,1-26.64,0Z" transform="translate(0 0)"/><g id="Group_22" data-name="Group 22"><path id="Path_47" data-name="Path 47" class="cls-19" d="M58.76,63.69h0a7.36,7.36,0,1,0,7.36,7.36A7.36,7.36,0,0,0,58.76,63.69Zm0-1.62a9,9,0,1,1-9,9h0A9,9,0,0,1,58.76,62.07Z" transform="translate(0 0)"/></g><path id="Path_48" data-name="Path 48" class="cls-27" d="M51.41,71.49a7.36,7.36,0,0,0,14.7,0h1.62a9,9,0,0,1-17.94,0Z" transform="translate(0 0)"/><g id="Group_24" data-name="Group 24"><g id="Group_23" data-name="Group 23"><path id="Path_49" data-name="Path 49" class="cls-28" d="M93.91,63.32a21.25,21.25,0,0,1,36.52-10.55l1.36-1.25A23.09,23.09,0,0,0,92.08,63Z" transform="translate(0 0)"/></g></g><g id="Group_26" data-name="Group 26"><g id="Group_25" data-name="Group 25"><path id="Path_50" data-name="Path 50" class="cls-28" d="M74.35,63.81,76,63.05A18.78,18.78,0,0,0,59,52v1.86A16.9,16.9,0,0,1,74.35,63.81Z" transform="translate(0 0)"/></g></g></g><path id="Path_51" data-name="Path 51" class="cls-21" d="M163,57.37a2.91,2.91,0,1,1,4.08.54h0A2.91,2.91,0,0,1,163,57.37Z" transform="translate(0 0)"/><path id="Path_52" data-name="Path 52" class="cls-23" d="M164.38,56.29a1.13,1.13,0,1,1,1.59.21A1.14,1.14,0,0,1,164.38,56.29Z" transform="translate(0 0)"/></svg>