<svg id="Layer_1" data-name="Layer 1" xmlns="http://www.w3.org/2000/svg" viewBox="0 0 134 74.18"><defs><style>.cls-1{fill:#b2b2b2;}.cls-2,.cls-6{fill:#b3b3b4;}.cls-3{fill:#383838;}.cls-15,.cls-4{fill:#e7a905;}.cls-5{fill:#121312;}.cls-16,.cls-6{opacity:0.4;}.cls-14,.cls-15,.cls-16,.cls-6{isolation:isolate;}.cls-7{fill:#696969;}.cls-8{fill:#6b6b6b;}.cls-9{fill:#4a4a4a;}.cls-10{fill:#836a30;}.cls-11,.cls-16{fill:#fecd31;}.cls-12{fill:#a3853d;}.cls-13,.cls-14{fill:#4a7085;}.cls-14{opacity:0.7;}.cls-15{opacity:0.5;}</style></defs><g id="Group_5943" data-name="Group 5943"><path id="Path_1" data-name="Path 1" class="cls-1" d="M132.42,73.08c0,.61-29.48,1.1-65.85,1.1S.71,73.69.71,73.08,30.19,72,66.57,72,132.42,72.48,132.42,73.08Z"/><g id="Group_7" data-name="Group 7"><path id="Path_2" data-name="Path 2" class="cls-2" d="M60,7.12l-.45-.7L56,8.74l.45.7.6-.39V16.8h2.27V7.6Z"/><rect id="Rectangle_2" data-name="Rectangle 2" class="cls-3" x="56.35" y="15.44" width="3.62" height="9.06"/><rect id="Rectangle_3" data-name="Rectangle 3" class="cls-4" x="18.18" y="58.25" width="24.01" height="4.87"/><rect id="Rectangle_4" data-name="Rectangle 4" class="cls-5" x="52.88" y="44.52" width="53.06" height="4.4"/><g id="Group_3" data-name="Group 3"><g id="Group_1" data-name="Group 1"><path id="Path_3" data-name="Path 3" class="cls-3" d="M121.21,48H41.39a11.68,11.68,0,0,0,0,23.36h79.82a11.68,11.68,0,0,0,0-23.36Zm0,21.49H41.39a9.81,9.81,0,0,1,0-19.61h79.82a9.81,9.81,0,0,1,0,19.61Z"/><path id="Path_4" data-name="Path 4" class="cls-3" d="M67.33,48h1.5V46.89h-1.5Zm-5.24,0h1.5V46.89h-1.5Zm10.48,0h1.5V46.89h-1.5Zm5.24,0h1.5V46.89h-1.5ZM35,48.59l.56,1a10.74,10.74,0,0,1,1.49-.72l-.42-1.05A12.25,12.25,0,0,0,35,48.59Zm6-1.69,0,1.13.28,0h1.25V46.89H41.08Zm42,1.11h1.49V46.89H83.05ZM46.38,48h1.5V46.89h-1.5Zm5.24,0h1.5V46.89h-1.5Zm5.24,0h1.5V46.89h-1.5Zm63.36-1.07v1.12h1.5V46.94ZM126.43,48,126,49a10.12,10.12,0,0,1,1.45.78l.6-1a12.2,12.2,0,0,0-1.59-.86Zm-12,0H116V46.89h-1.5Zm-82.9,3.48A13.94,13.94,0,0,0,30.51,53l1,.6a11.33,11.33,0,0,1,.95-1.35Zm99.79.41-.9.69a12.64,12.64,0,0,1,.91,1.38l1-.55a12.66,12.66,0,0,0-1-1.51ZM134,59.48a12.16,12.16,0,0,0-.16-1.8l-1.12.18a11.23,11.23,0,0,1,.15,1.64ZM88.28,48h1.5V46.89h-1.5Zm5.24,0H95V46.89h-1.5Zm5.24,0h1.5V46.89h-1.5ZM104,48h1.5V46.89H104Zm5.24,0h1.5V46.89h-1.5ZM54.14,72.49h1.5V71.36h-1.5Zm52.38,0H108V71.36h-1.49Zm-21,0h1.49V71.36H85.57Zm5.24,0h1.5V71.36h-1.5Zm5.23,0h1.5V71.36H96Zm15.72,0h1.5V71.36h-1.5Zm-10.48,0h1.5V71.36h-1.5Zm30.27-7.4,1,.52a12.87,12.87,0,0,0,.73-1.66l-1.07-.38a10.15,10.15,0,0,1-.66,1.51Zm-3.81,4.28.63.93a14,14,0,0,0,1.42-1.12l-.76-.84a10.79,10.79,0,0,1-1.29,1Zm-5.4,1.94.11,1.12a13.65,13.65,0,0,0,1.79-.3L124,71a12.91,12.91,0,0,1-1.63.28ZM117,72.49h1.49V71.37H117Zm-47.15,0h1.5V71.37h-1.5Zm-26.18,0h1.5V71.37h-1.5ZM37.84,72a13.76,13.76,0,0,0,1.78.38l.16-1.13a9.92,9.92,0,0,1-1.62-.34Zm-5.42-3.18A13,13,0,0,0,33.8,70l.67-.91A10.79,10.79,0,0,1,33.21,68ZM48.9,72.49h1.5V71.37H48.9Zm-19.74-9a11.55,11.55,0,0,0,.65,1.69l1-.48a10.72,10.72,0,0,1-.61-1.54ZM30,57.38l-1.1-.22a12,12,0,0,0-.23,1.8l1.13.06a11.3,11.3,0,0,1,.2-1.64ZM75.1,72.49h1.49V71.37H75.1Zm5.23,0h1.5V71.37h-1.5Zm-15.71,0h1.5V71.37h-1.5Zm-5.24,0h1.5V71.37h-1.5Z"/></g><path id="Path_5" data-name="Path 5" class="cls-5" d="M41.39,49.89a9.81,9.81,0,0,0,0,19.61h79.82a9.81,9.81,0,0,0,0-19.61Z"/><g id="Group_2" data-name="Group 2"><path id="Path_6" data-name="Path 6" class="cls-2" d="M65.25,66.1A3.12,3.12,0,1,1,62.14,63a3.1,3.1,0,0,1,3.11,3.12Z"/><path id="Path_7" data-name="Path 7" class="cls-2" d="M72.92,66.1A3.12,3.12,0,1,1,69.81,63a3.1,3.1,0,0,1,3.11,3.12Z"/><path id="Path_8" data-name="Path 8" class="cls-2" d="M80.6,66.1A3.12,3.12,0,1,1,77.48,63,3.12,3.12,0,0,1,80.6,66.1Z"/><path id="Path_9" data-name="Path 9" class="cls-2" d="M88.26,66.1A3.12,3.12,0,1,1,85.14,63,3.1,3.1,0,0,1,88.26,66.1Z"/><path id="Path_10" data-name="Path 10" class="cls-2" d="M95.93,66.1A3.12,3.12,0,1,1,92.81,63a3.1,3.1,0,0,1,3.12,3.12Z"/><path id="Path_11" data-name="Path 11" class="cls-2" d="M103.6,66.1A3.12,3.12,0,1,1,100.48,63a3.12,3.12,0,0,1,3.12,3.12Z"/></g><path id="Path_12" data-name="Path 12" class="cls-6" d="M100.48,63a3.12,3.12,0,0,0-3.11,3.12,3,3,0,0,0,.14.89h5.95a3,3,0,0,0,.14-.89A3.12,3.12,0,0,0,100.49,63ZM62.14,63A3.12,3.12,0,0,0,59,66.1a2.73,2.73,0,0,0,.15.89h5.94a3.39,3.39,0,0,0,.15-.89A3.12,3.12,0,0,0,62.14,63Zm7.67,0a3.07,3.07,0,0,0-3.12,3,3,3,0,0,0,.14,1h6a3,3,0,0,0,.14-.89A3.12,3.12,0,0,0,69.81,63Zm23,0a3.07,3.07,0,0,0-3.11,3,2.89,2.89,0,0,0,.14,1h6a3,3,0,0,0,.14-.89A3.12,3.12,0,0,0,92.82,63ZM77.47,63a3.12,3.12,0,0,0-3.11,3.12h0a3,3,0,0,0,.14.89h6a3,3,0,0,0,.14-.89A3.12,3.12,0,0,0,77.47,63Zm7.67,0A3.07,3.07,0,0,0,82,66a2.89,2.89,0,0,0,.14,1h6a3,3,0,0,0,.14-.89A3.12,3.12,0,0,0,85.14,63Z"/><path id="Path_13" data-name="Path 13" class="cls-7" d="M44.4,53.27c-4,0-7.25,2.88-7.25,6.42S40.4,66.1,44.4,66.1h73.8c4,0,7.24-2.87,7.24-6.41s-3.25-6.42-7.24-6.42Z"/><path id="Path_14" data-name="Path 14" class="cls-2" d="M49.34,59.69a7.8,7.8,0,1,1-7.8-7.8A7.79,7.79,0,0,1,49.34,59.69Z"/><path id="Path_15" data-name="Path 15" class="cls-8" d="M47.24,59.69A5.69,5.69,0,1,1,41.55,54,5.69,5.69,0,0,1,47.24,59.69Z"/><path id="Path_16" data-name="Path 16" class="cls-9" d="M118.2,53.27h-35L75,66.1H118.2c4,0,7.25-2.87,7.25-6.41S122.19,53.27,118.2,53.27Z"/><path id="Path_17" data-name="Path 17" class="cls-9" d="M44.49,54.82l-6.12,9.59A5.69,5.69,0,1,0,44.73,55l-.24-.16Z"/><path id="Path_18" data-name="Path 18" class="cls-2" d="M128.85,59.69a7.8,7.8,0,1,1-7.8-7.8A7.8,7.8,0,0,1,128.85,59.69Z"/><path id="Path_19" data-name="Path 19" class="cls-8" d="M126.74,59.69A5.69,5.69,0,1,1,121.05,54,5.69,5.69,0,0,1,126.74,59.69Z"/><path id="Path_20" data-name="Path 20" class="cls-9" d="M123.79,54.7l-6.1,9.57a5.69,5.69,0,1,0,6.76-9.15A4.59,4.59,0,0,0,123.79,54.7Z"/></g><path id="Path_21" data-name="Path 21" class="cls-10" d="M46.86,39.47H86l26.52,5.47H46.86a2,2,0,0,1-2.23-1.73,1.11,1.11,0,0,1,0-.19V39.47Z"/><path id="Path_22" data-name="Path 22" class="cls-3" d="M75.41,17.49H66.68l-1.27,7,11.36-1.4Z"/><path id="Path_23" data-name="Path 23" class="cls-4" d="M44.61,39.47v-9c0-2.18,1.31-5.55,6.36-6.36s26.88-3,32.86-3.49,8.3,2.56,8.3,7.23v11.6Z"/><path id="Path_24" data-name="Path 24" class="cls-11" d="M81.28,20.87l2.55-.23c6-.5,8.3,2.56,8.3,7.23v11.6H81.28Z"/><g id="Group_4" data-name="Group 4"><path id="Path_25" data-name="Path 25" class="cls-11" d="M64.51,29.52H78.74a1.94,1.94,0,0,0-1.93-1.93H66.43A1.93,1.93,0,0,0,64.51,29.52Z"/><path id="Path_26" data-name="Path 26" class="cls-11" d="M64.51,32.89H78.74A1.93,1.93,0,0,0,76.81,31H66.43A1.92,1.92,0,0,0,64.51,32.89Z"/><path id="Path_27" data-name="Path 27" class="cls-11" d="M64.51,36.25H78.74a1.92,1.92,0,0,0-1.93-1.92H66.43a1.92,1.92,0,0,0-1.92,1.92Z"/></g><g id="Group_5" data-name="Group 5"><path id="Path_28" data-name="Path 28" class="cls-4" d="M84.79,44.71h-1.4c-1.87,0-3.65-1.4-3.65-4.12V23c0-6.24,2.87-15.22,3.87-18.33S85.23,0,89.47,0h19.22c4.16,0,4.87,2.34,4.87,5.56V44.94Z"/><path id="Path_29" data-name="Path 29" class="cls-12" d="M79.74,39.47v1.12c0,2.72,1.78,4.12,3.65,4.12h1.4l28.76.23V39.47Z"/><path id="Path_30" data-name="Path 30" class="cls-13" d="M108.86,2.37H89.35c-1.68,0-3,.32-4,3.69-.75,2.41-3.7,11.33-3.7,16.13v12c0,1.5.74,1.5,1.58,1.5L111,35.61V5.36C111,3.8,110.73,2.37,108.86,2.37Z"/><path id="Path_31" data-name="Path 31" class="cls-14" d="M111,13.73c-.88-.23-2.41.95-3.1,2.87-1,2.9-2.44,9.15-2.44,9.15H97.28c-2.14,0-2.74.63-2.74,1.16s.1,1.64.85,1.64h2.74v.53a5.33,5.33,0,0,0-3.41,4.22H86.34l4-11.28-.65-1.84,2-2.08,3,1.55.44-.3-5.32-5.27-.45.63L90.62,17l-2.1,2.14-2.29-1.55-4.56,3.91c0,.24,0,.49,0,.72v12c0,1.5.74,1.5,1.58,1.5h4.94l0,0h6.31v0l14.93,0,.46-1-.25-8.32s.8-3.68,1.41-7Z"/><path id="Path_32" data-name="Path 32" class="cls-14" d="M97.09,2.37,82.47,35.61a3.25,3.25,0,0,0,.76.06H89l14.64-33.3Zm-4.48,0-11,24.92V33.1L95.16,2.37Z"/></g><g id="Group_6" data-name="Group 6"><path id="Path_33" data-name="Path 33" class="cls-7" d="M7.44,72.34l7.77-35.23h2.44L9.88,72.34Z"/><path id="Path_34" data-name="Path 34" class="cls-3" d="M17.65,37.11h2.82c2.83,0,6.77,2.37,4.62,11.55S19.54,72.34,9.88,72.34Z"/><path id="Path_35" data-name="Path 35" class="cls-3" d="M7.44,72.34H0l1.81-1.81,6.88-3.89Z"/></g><circle id="Ellipse_1" data-name="Ellipse 1" class="cls-15" cx="54.53" cy="31.79" r="4.87"/><path id="Path_36" data-name="Path 36" class="cls-11" d="M58.2,30.17A4.3,4.3,0,0,1,56,35.85h0L24.39,50a4.3,4.3,0,0,1-5.68-2.16h0a4.3,4.3,0,0,1,2.17-5.68h0L52.52,28a4.3,4.3,0,0,1,5.68,2.16Z"/><path id="Path_37" data-name="Path 37" class="cls-16" d="M52.52,28,43.7,31.94l-8,13L56,35.86A4.3,4.3,0,1,0,52.51,28h0Z"/></g></g></svg>