<svg id="Layer_1" data-name="Layer 1" xmlns="http://www.w3.org/2000/svg" viewBox="0 0 152 92.53"><defs><style>.cls-1{fill:#b2b2b2;}.cls-2,.cls-3{fill:#d1d1d1;}.cls-22,.cls-3,.cls-9{opacity:0.5;}.cls-15,.cls-22,.cls-23,.cls-3,.cls-9{isolation:isolate;}.cls-4{fill:#4b5150;}.cls-5{fill:#3a3b3b;}.cls-6{fill:#e7a905;}.cls-7{fill:#9bb8b6;}.cls-8,.cls-9{fill:#fecd31;}.cls-10{fill:#383838;}.cls-11{fill:#121312;}.cls-12{fill:#a3853d;}.cls-13{fill:#836a30;}.cls-14,.cls-15,.cls-22{fill:#4a7085;}.cls-15{opacity:0.7;}.cls-16{fill:#38332c;}.cls-17{fill:#ff4000;}.cls-18,.cls-23{fill:#2e2e2e;}.cls-19{fill:#b3b3b4;}.cls-20{fill:#6b6b6b;}.cls-21{fill:#d0eef9;}.cls-23{opacity:0.4;}</style></defs><g id="Group_5942" data-name="Group 5942"><path id="Path_1" data-name="Path 1" class="cls-1" d="M151.44,91.12c0,.78-32.67,1.41-73,1.41s-73-.63-73-1.41,32.67-1.41,73-1.41S151.44,90.34,151.44,91.12Z" transform="translate(0)"/><g id="Group_1" data-name="Group 1"><path id="Path_2" data-name="Path 2" class="cls-2" d="M49.52,19.59a1.14,1.14,0,0,0-.08,1l12.63,9.56a1,1,0,0,0,1.09-.21A.63.63,0,0,0,63,29h0L50.4,19.47a.62.62,0,0,0-.88.12Z" transform="translate(0)"/></g><path id="Path_3" data-name="Path 3" class="cls-3" d="M50.15,20.09a.63.63,0,0,0-.78,0,2.34,2.34,0,0,0,.07.45l12.63,9.56A1.17,1.17,0,0,0,63,30a.64.64,0,0,0-.24-.39Z" transform="translate(0)"/><path id="Path_4" data-name="Path 4" class="cls-4" d="M88.49,45.26,63.44,28l-2.2,2.65L90.86,52.51Z" transform="translate(0)"/><g id="Group_18" data-name="Group 18"><path id="Path_5" data-name="Path 5" class="cls-5" d="M4.57,28.31a.61.61,0,0,1-.61.61H4a.6.6,0,0,1-.6-.61h0V25.52a.6.6,0,0,1,.6-.61H4a.61.61,0,0,1,.61.61h0Z" transform="translate(0)"/><g id="Group_2" data-name="Group 2"><path id="Path_6" data-name="Path 6" class="cls-5" d="M3.06,29.37s-.57,1.1-1.16,2.26-1.3,2.7-.58,4.23a3.43,3.43,0,0,0,3.09,2A3.52,3.52,0,0,0,7.78,36a4,4,0,0,0-.33-4.11,3,3,0,0,0-.7-.72c-.23-.15-.33-.05-.27.16a4.94,4.94,0,0,1-.34,3.73,1.7,1.7,0,0,1-1.64.82A1.52,1.52,0,0,1,3,35.06a3.17,3.17,0,0,1,.22-2.45C4,31.1,4.56,29.79,4.58,29.74c.23-.47.2-.57-.26-.8a1,1,0,0,0-1.26.43Z" transform="translate(0)"/></g><path id="Path_7" data-name="Path 7" class="cls-6" d="M5.4,28.86a1.48,1.48,0,1,1-1.48-1.47h0A1.47,1.47,0,0,1,5.4,28.86Z" transform="translate(0)"/><path id="Path_8" data-name="Path 8" class="cls-7" d="M2.25,16.56a.41.41,0,0,1-.41.41h0a.41.41,0,0,1-.41-.41h0V6.88a.41.41,0,0,1,.41-.41h0a.41.41,0,0,1,.41.41h0Z" transform="translate(0)"/><path id="Path_9" data-name="Path 9" class="cls-7" d="M6.32,16.56a.41.41,0,0,1-.41.41h0a.41.41,0,0,1-.41-.41h0V6.88a.41.41,0,0,1,.41-.41h0a.41.41,0,0,1,.41.41Z" transform="translate(0)"/><g id="Group_3" data-name="Group 3"><path id="Path_10" data-name="Path 10" class="cls-8" d="M6.47,23.54a2.1,2.1,0,0,1-2,1.88H3.24a2.1,2.1,0,0,1-2.05-1.88L.57,16.45a1.7,1.7,0,0,1,1.51-1.87H5.36a1.69,1.69,0,0,1,1.73,1.67,1.48,1.48,0,0,1,0,.21Z" transform="translate(0)"/></g><path id="Path_11" data-name="Path 11" class="cls-8" d="M108.15,17.8.81,0S-2.87,8.36,5.48,10.42s92.66,25,92.66,25Z" transform="translate(0)"/><path id="Path_12" data-name="Path 12" class="cls-9" d="M44.78,21c25.33,6.86,53.36,14.5,53.36,14.5l10-17.66L61.87,10.12Z" transform="translate(0)"/><g id="Group_4" data-name="Group 4"><path id="Path_13" data-name="Path 13" class="cls-10" d="M109.75,25a2.06,2.06,0,0,1,2-1.89h3.14A1.9,1.9,0,0,1,116.8,25v2A1.89,1.89,0,0,0,118.69,29h4.09a1.91,1.91,0,0,1,1.89,1.89v6a1.89,1.89,0,0,1-1.89,1.88H110.67A1.73,1.73,0,0,1,108.91,37a1,1,0,0,1,0-.17Z" transform="translate(0)"/></g><rect id="Rectangle_2" data-name="Rectangle 2" class="cls-5" x="77.48" y="62.47" width="66.38" height="7.55"/><rect id="Rectangle_3" data-name="Rectangle 3" class="cls-11" x="84.62" y="58.32" width="33.7" height="4.17"/><path id="Path_14" data-name="Path 14" class="cls-6" d="M84.89,58.49H83.56c-1.77,0-3.46-1.33-3.46-3.9V37.92c0-5.91,2.72-14.42,3.67-17.38s1.53-4.43,5.55-4.43h18.23c3.94,0,4.61,2.21,4.61,5.27V58.72Z" transform="translate(0)"/><path id="Path_15" data-name="Path 15" class="cls-12" d="M80.1,53.53v1.06c0,2.57,1.68,3.9,3.46,3.9h1.33l27.27.22V53.53Z" transform="translate(0)"/><path id="Path_16" data-name="Path 16" class="cls-13" d="M149.27,53.53H112.16v5.18h37.11a1.88,1.88,0,0,0,2.11-1.63,1.1,1.1,0,0,0,0-.18V53.53Z" transform="translate(0)"/><path id="Path_17" data-name="Path 17" class="cls-14" d="M107.71,18.35H89.21c-1.6,0-2.82.3-3.8,3.5-.7,2.28-3.51,10.74-3.51,15.3V48.51c0,1.42.71,1.42,1.51,1.42l26.31-.06V21.19C109.72,19.71,109.48,18.35,107.71,18.35Z" transform="translate(0)"/><path id="Path_18" data-name="Path 18" class="cls-15" d="M109.72,29.12c-.83-.22-2.28.9-2.94,2.72-1,2.75-2.31,8.67-2.31,8.67H96.73c-2,0-2.59.6-2.59,1.1s.09,1.56.8,1.56h2.6v.5a5,5,0,0,0-3.23,4h-8L90.18,37l-.62-1.74,1.94-2,2.82,1.47.43-.28-5-5-.43.6,1.14,2.16-2,2-2.17-1.47-4.33,3.71c0,.23,0,.46,0,.68V48.51c0,1.42.71,1.42,1.51,1.42h4.67l0,0h6v0l14.16,0,.43-1L108.39,41s.75-3.49,1.33-6.59Z" transform="translate(0)"/><g id="Group_6" data-name="Group 6"><path id="Path_19" data-name="Path 19" class="cls-8" d="M119.92,32.69H137l2.49,6.65L117.26,38Z" transform="translate(0)"/><path id="Path_20" data-name="Path 20" class="cls-6" d="M151.4,53.53V45c0-2.07-1.24-5.26-6-6s-25.48-2.83-31.16-3.31-7.86,2.43-7.86,6.86v11Z" transform="translate(0)"/><path id="Path_21" data-name="Path 21" class="cls-8" d="M116.64,35.88l-2.43-.21c-5.67-.47-7.86,2.42-7.86,6.86v11h10.29Z" transform="translate(0)"/><g id="Group_5" data-name="Group 5"><path id="Path_22" data-name="Path 22" class="cls-8" d="M132.53,44.09H119a1.83,1.83,0,0,1,1.83-1.83h9.84a1.83,1.83,0,0,1,1.82,1.83Z" transform="translate(0)"/><path id="Path_23" data-name="Path 23" class="cls-8" d="M132.53,47.28H119a1.82,1.82,0,0,1,1.83-1.82h9.84a1.82,1.82,0,0,1,1.82,1.82Z" transform="translate(0)"/><path id="Path_24" data-name="Path 24" class="cls-8" d="M132.53,50.48H119a1.83,1.83,0,0,1,1.83-1.83h9.84a1.82,1.82,0,0,1,1.82,1.82Z" transform="translate(0)"/></g><path id="Rectangle_4" data-name="Rectangle 4" class="cls-16" d="M137.4,43.06h8.84a1.34,1.34,0,0,1,1.35,1.34v4.15a1.34,1.34,0,0,1-1.35,1.34H137.4a1.34,1.34,0,0,1-1.34-1.34V44.4a1.34,1.34,0,0,1,1.34-1.34Z" transform="translate(0)"/><path id="Path_25" data-name="Path 25" class="cls-16" d="M146.17,43.06h-2l-4.36,6.83h6.33a1.41,1.41,0,0,0,1.41-1.42v-4a1.41,1.41,0,0,0-1.41-1.42Z" transform="translate(0)"/></g><path id="Path_26" data-name="Path 26" class="cls-15" d="M96.55,18.35,82.69,49.87a3.49,3.49,0,0,0,.72.05h5.46l13.89-31.57Zm-4.25,0L81.9,42v5.51L94.72,18.35Z" transform="translate(0)"/><path id="Path_27" data-name="Path 27" class="cls-17" d="M152,73.11a1.53,1.53,0,0,1-1.63,1.4h0a1.53,1.53,0,0,1-1.63-1.4V71a1.53,1.53,0,0,1,1.63-1.4h0A1.53,1.53,0,0,1,152,71Z" transform="translate(0)"/><path id="Path_28" data-name="Path 28" class="cls-6" d="M150.08,80.36h-1.64V68.93h1.65Z" transform="translate(0)"/><path id="Path_29" data-name="Path 29" class="cls-18" d="M28.05,79.15h120.4V69H59.36l-7.52-5.8H48.31S28.05,67.92,28.05,79.15Z" transform="translate(0)"/><path id="Rectangle_5" data-name="Rectangle 5" class="cls-18" d="M63.16,70.49H87.27a1.9,1.9,0,0,1,1.9,1.9v7.7a1.9,1.9,0,0,1-1.9,1.9H63.16a1.9,1.9,0,0,1-1.9-1.9v-7.7a1.9,1.9,0,0,1,1.9-1.9Z" transform="translate(0)"/><path id="Path_30" data-name="Path 30" class="cls-19" d="M63.38,82h1.34V70.49H63.38Zm10.76,0h1.34V70.49H74.14ZM84.9,70.49V82h1.34V70.49Z" transform="translate(0)"/><path id="Path_31" data-name="Path 31" class="cls-20" d="M82.21,72.47a1.19,1.19,0,0,1-2.36.33,1.2,1.2,0,0,1,1-1.35H81A1.11,1.11,0,0,1,82.21,72.47Z" transform="translate(0)"/><g id="Group_8" data-name="Group 8"><path id="Path_32" data-name="Path 32" class="cls-11" d="M55.85,80.4A10.89,10.89,0,1,1,45,69.52h0A10.88,10.88,0,0,1,55.85,80.4Z" transform="translate(0)"/><path id="Path_33" data-name="Path 33" class="cls-19" d="M50.42,80.4A5.46,5.46,0,1,1,45,74.94a5.46,5.46,0,0,1,5.46,5.46Z" transform="translate(0)"/><g id="Group_7" data-name="Group 7"><path id="Path_34" data-name="Path 34" class="cls-20" d="M44.57,75.55l-.21,0a.33.33,0,0,0-.27.36h0a.33.33,0,0,0,.36.27h0l.15,0h0a.32.32,0,0,0,.29-.35.31.31,0,0,0-.35-.29h0Zm-2.9,1.35a.3.3,0,0,0-.23.1l-.15.16a.33.33,0,0,0,0,.46h0a.42.42,0,0,0,.21.08.35.35,0,0,0,.24-.1l0,0,0,0h0a.6.6,0,0,0,.08-.08.32.32,0,0,0,0-.44.31.31,0,0,0-.22-.09Zm-1.28,3.33h0a.32.32,0,0,0-.31.33h0a1.77,1.77,0,0,0,0,.23.32.32,0,0,0,.32.29h0a.32.32,0,0,0,.3-.32c0-.08,0-.17,0-.25a.32.32,0,0,0-.32-.28Zm1.5,3.24a.35.35,0,0,0-.24.1.33.33,0,0,0,0,.46h0l.17.15a.38.38,0,0,0,.21.07.32.32,0,0,0,.24-.11.32.32,0,0,0,0-.44l-.18-.16a.37.37,0,0,0-.2-.07Zm3.59,1.15h0l-.25,0a.32.32,0,0,0,0,.63h0l.23,0a.32.32,0,0,0,.28-.35.32.32,0,0,0-.32-.29Zm3.11-1.75a.3.3,0,0,0-.25.12l-.09.11,0,.05a.32.32,0,0,0,0,.45h0a.31.31,0,0,0,.21.07.32.32,0,0,0,.24-.11l.14-.17a.32.32,0,0,0,0-.44h0a.37.37,0,0,0-.2-.07Zm.9-3.46h-.05a.33.33,0,0,0-.27.36h0l0,.19a.31.31,0,0,0,.32.29h0a.32.32,0,0,0,.29-.35c0-.09,0-.16,0-.22a.32.32,0,0,0-.32-.28Zm-1.85-3a.32.32,0,0,0-.33.32.31.31,0,0,0,.14.26l.15.12a.37.37,0,0,0,.2.07.32.32,0,0,0,.32-.32.34.34,0,0,0-.12-.26l-.17-.13a.33.33,0,0,0-.19-.06Z" transform="translate(0)"/></g><path id="Path_35" data-name="Path 35" class="cls-20" d="M47.58,80.4A2.62,2.62,0,1,1,45,77.79a2.63,2.63,0,0,1,2.61,2.61Z" transform="translate(0)"/><path id="Path_36" data-name="Path 36" class="cls-19" d="M46,80.4a1,1,0,0,1-1,1,1,1,0,0,1-1-1,1,1,0,0,1,1-1h0A1,1,0,0,1,46,80.4Z" transform="translate(0)"/></g><g id="Group_10" data-name="Group 10"><path id="Path_37" data-name="Path 37" class="cls-11" d="M119,80.4a10.89,10.89,0,1,1-10.89-10.88A10.88,10.88,0,0,1,119,80.4Z" transform="translate(0)"/><path id="Path_38" data-name="Path 38" class="cls-19" d="M113.55,80.4a5.46,5.46,0,1,1-5.45-5.46,5.45,5.45,0,0,1,5.45,5.46Z" transform="translate(0)"/><g id="Group_9" data-name="Group 9"><path id="Path_39" data-name="Path 39" class="cls-20" d="M107.7,75.55l-.21,0a.32.32,0,0,0-.27.36h0a.34.34,0,0,0,.36.27h0l.15,0h0a.32.32,0,0,0,.27-.37.31.31,0,0,0-.35-.27Zm-2.9,1.35a.3.3,0,0,0-.23.1l-.15.16a.33.33,0,0,0,0,.46.42.42,0,0,0,.21.08.35.35,0,0,0,.24-.1l0,0,0,0h0l.07-.08a.31.31,0,0,0,0-.44.31.31,0,0,0-.22-.09Zm-1.28,3.33h0a.31.31,0,0,0-.31.32h0a1.77,1.77,0,0,0,0,.23.32.32,0,0,0,.32.29h0a.32.32,0,0,0,.3-.32c0-.08,0-.17,0-.25a.32.32,0,0,0-.32-.28Zm1.5,3.24a.33.33,0,0,0-.33.32.32.32,0,0,0,.11.24l.17.15a.31.31,0,0,0,.21.07.32.32,0,0,0,.24-.11.32.32,0,0,0,0-.44l-.18-.16a.37.37,0,0,0-.2-.07Zm3.58,1.15h0l-.25,0a.32.32,0,0,0-.27.36.32.32,0,0,0,.32.27h0l.23,0a.32.32,0,0,0,.28-.35.33.33,0,0,0-.32-.29Zm3.12-1.75a.33.33,0,0,0-.25.12.52.52,0,0,1-.1.11l0,.05a.31.31,0,0,0,0,.44h0a.29.29,0,0,0,.2.07.33.33,0,0,0,.25-.11l.14-.17a.31.31,0,0,0,0-.44h0a.37.37,0,0,0-.2-.07Zm.9-3.46h-.05a.33.33,0,0,0-.27.36h0a1.23,1.23,0,0,1,0,.19.32.32,0,0,0,.32.29h0a.33.33,0,0,0,.29-.35c0-.09,0-.16,0-.22a.33.33,0,0,0-.33-.28Zm-1.86-3a.32.32,0,0,0-.32.33.31.31,0,0,0,.13.25l.16.12a.27.27,0,0,0,.2.07.33.33,0,0,0,.25-.12.32.32,0,0,0-.05-.45h0a1.41,1.41,0,0,0-.18-.14.31.31,0,0,0-.19-.06Z" transform="translate(0)"/></g><path id="Path_40" data-name="Path 40" class="cls-20" d="M110.71,80.4a2.62,2.62,0,1,1-2.62-2.61h0a2.63,2.63,0,0,1,2.62,2.61Z" transform="translate(0)"/><path id="Path_41" data-name="Path 41" class="cls-19" d="M109.12,80.4a1,1,0,1,1-1-1h0A1,1,0,0,1,109.12,80.4Z" transform="translate(0)"/></g><g id="Group_12" data-name="Group 12"><path id="Path_42" data-name="Path 42" class="cls-11" d="M142.25,80.4a10.89,10.89,0,1,1-10.88-10.88h0A10.88,10.88,0,0,1,142.25,80.4Z" transform="translate(0)"/><path id="Path_43" data-name="Path 43" class="cls-19" d="M136.82,80.4a5.46,5.46,0,1,1-5.46-5.46,5.45,5.45,0,0,1,5.46,5.46Z" transform="translate(0)"/><g id="Group_11" data-name="Group 11"><path id="Path_44" data-name="Path 44" class="cls-20" d="M131,75.55l-.22,0a.32.32,0,1,0,.1.64h0l.15,0h0a.34.34,0,0,0,.29-.35.32.32,0,0,0-.35-.29Zm-2.9,1.35a.29.29,0,0,0-.23.1l-.16.16a.34.34,0,0,0,0,.46.42.42,0,0,0,.22.08.33.33,0,0,0,.23-.1s0,0,0,0l.05,0h0l.07-.08a.32.32,0,0,0-.24-.53Zm-1.29,3.33h0a.33.33,0,0,0-.31.33h0a1.77,1.77,0,0,0,0,.23.32.32,0,0,0,.32.29h0a.32.32,0,0,0,.3-.32c0-.08,0-.17,0-.25a.32.32,0,0,0-.32-.28Zm1.5,3.24a.32.32,0,0,0-.21.56l.17.15a.32.32,0,0,0,.45-.05.33.33,0,0,0,0-.43,1.37,1.37,0,0,1-.18-.16.37.37,0,0,0-.2-.07Zm3.59,1.15h0l-.25,0a.31.31,0,0,0-.27.36.31.31,0,0,0,.32.27h0l.22,0a.32.32,0,0,0,.29-.35.33.33,0,0,0-.32-.29ZM135,82.87a.34.34,0,0,0-.26.12l-.09.11,0,.05a.31.31,0,0,0,0,.44h0a.33.33,0,0,0,.46,0h0l.14-.17a.31.31,0,0,0-.05-.44h0a.32.32,0,0,0-.2-.07Zm.9-3.46h-.05a.32.32,0,0,0-.27.36h0a1.23,1.23,0,0,1,0,.19.32.32,0,0,0,.32.29h0a.32.32,0,0,0,.28-.35,1.27,1.27,0,0,0,0-.22.33.33,0,0,0-.32-.28Zm-1.86-3a.32.32,0,0,0-.19.58l.16.12a.27.27,0,0,0,.2.07.32.32,0,0,0,.32-.32.33.33,0,0,0-.12-.25,1.18,1.18,0,0,0-.18-.13.26.26,0,0,0-.19-.07Z" transform="translate(0)"/></g><path id="Path_45" data-name="Path 45" class="cls-20" d="M134,80.4a2.61,2.61,0,1,1-2.61-2.61A2.61,2.61,0,0,1,134,80.4Z" transform="translate(0)"/><path id="Path_46" data-name="Path 46" class="cls-19" d="M132.4,80.4a1,1,0,1,1-1-1A1,1,0,0,1,132.4,80.4Z" transform="translate(0)"/></g><path id="Path_47" data-name="Path 47" class="cls-8" d="M32.66,80.4A12.3,12.3,0,0,1,49.7,69l.12-.11V30.84c0-2.68-1.34-3.43-3.23-3.43H26.54c-4,0-5.41,2.95-6.36,5.3s-5,11.53-5.61,13a7.2,7.2,0,0,0-1,4.27V80.87c0,2.57.66,3.91,3.61,3.91H32.71S32.66,82,32.66,80.4Z" transform="translate(0)"/><path id="Path_48" data-name="Path 48" class="cls-5" d="M16.46,49.34a6.16,6.16,0,0,1,.83-3.66c.5-1.29,4-9.17,4.8-11.18s2-4.55,5.46-4.55H40.16c1.51,0,1.68.45,1.68,1.8s0,17.65,0,17.65Z" transform="translate(0)"/><path id="Path_49" data-name="Path 49" class="cls-14" d="M27.55,30.62c-2.92,0-4,2-4.84,4.13l-4.8,11.17-.35.78a4.06,4.06,0,0,0-.41,2l24,0c0-1.24,0-17,0-17,0-1.13,0-1.13-1-1.13Z" transform="translate(0)"/><path id="Path_50" data-name="Path 50" class="cls-21" d="M15.17,68.93a2,2,0,0,1-1.73,2.18h0a2,2,0,0,1-1.73-2.18V65.58a2,2,0,0,1,1.73-2.17h0a2,2,0,0,1,1.73,2.17Z" transform="translate(0)"/><path id="Path_51" data-name="Path 51" class="cls-6" d="M41,51.16a.61.61,0,0,1-.61.61h-4.6a.61.61,0,0,1-.61-.61h0a.61.61,0,0,1,.61-.61h4.6A.61.61,0,0,1,41,51.16Z" transform="translate(0)"/><g id="Group_13" data-name="Group 13"><path id="Path_52" data-name="Path 52" class="cls-19" d="M17.84,29.83A1.74,1.74,0,0,0,16,31.39a1.82,1.82,0,0,0,0,.33v5.9a1.49,1.49,0,0,0,1.3,1.64,1.93,1.93,0,0,0,.34,0,.33.33,0,0,0,.35-.32.33.33,0,0,0-.31-.35h0c-.69,0-1-.28-1-1v-5.9a1.08,1.08,0,0,1,.9-1.22,1.71,1.71,0,0,1,.32,0h5.05a.34.34,0,0,0,0-.67Z" transform="translate(0)"/></g><path id="Path_53" data-name="Path 53" class="cls-6" d="M13.61,73.2c-1.57,0-2,.84-2,1.86v5.81c0,2.57.66,3.91,3.62,3.91h17.5s-.06-2.83-.06-4.38A12.24,12.24,0,0,1,35,73.2Z" transform="translate(0)"/><g id="Group_14" data-name="Group 14"><path id="Path_54" data-name="Path 54" class="cls-6" d="M16.37,49.34l0,20.88a.09.09,0,0,0,.09.08H26.88a.08.08,0,0,0,.08,0c3.89-10,14.76-9.12,14.87-9.1a.07.07,0,0,0,.06,0,.06.06,0,0,0,0-.06V49.4a.08.08,0,0,0-.08-.09h0a.09.09,0,0,0-.09.08h0V61c-.76,0-11.1-.61-14.93,9.16H16.52c0-.16,0-20.79,0-20.79a.08.08,0,0,0-.09-.08A.08.08,0,0,0,16.37,49.34Z" transform="translate(0)"/></g><g id="Group_15" data-name="Group 15"><path id="Path_55" data-name="Path 55" class="cls-8" d="M25.48,77H16.27a1,1,0,0,1,1-1h7.15a1,1,0,0,1,1,1Z" transform="translate(0)"/><path id="Path_56" data-name="Path 56" class="cls-8" d="M25.48,79.16H16.27a1,1,0,0,1,1-1h7.15a1,1,0,0,1,1,1Z" transform="translate(0)"/><path id="Path_57" data-name="Path 57" class="cls-8" d="M25.48,81.29H16.27a1,1,0,0,1,1-1h7.15a1,1,0,0,1,1,1Z" transform="translate(0)"/></g><path id="Path_58" data-name="Path 58" class="cls-5" d="M18.62,43.9c0,.78-.36,1.08-.8,1.08h0c-.43,0-.8-.3-.8-1.08V34.35c0-.78.36-1,.8-1h0c.44,0,.8.22.8,1Z" transform="translate(0)"/><path id="Path_59" data-name="Path 59" class="cls-22" d="M38.76,42.32c-.6,1.65-1.31,4.43-1.78,6.4h4c.07-.36.15-.74.23-1.14v-8A4.17,4.17,0,0,0,38.76,42.32Zm-17.5-1.79,1.13,2.16-2,2-1.53-1-1,2.25-.35.78a4.06,4.06,0,0,0-.41,2h4.56l.44-1.22-.61-1.75,1.94-2,2.83,1.47.42-.28-5.05-5Z" transform="translate(0)"/><path id="Path_60" data-name="Path 60" class="cls-22" d="M27.55,30.62h-.21L19.62,48.18v.5h1.76l8-18.06Zm3.28,0L22.88,48.68l5.09,0,8-18.08Z" transform="translate(0)"/><g id="Group_16" data-name="Group 16"><path id="Path_61" data-name="Path 61" class="cls-6" d="M49.36,68.9a12,12,0,0,1,7.76,11.22,11.86,11.86,0,0,1-.2,2.23l1.31.25a13.33,13.33,0,0,0-8.4-14.95Z" transform="translate(0)"/></g><path id="Path_62" data-name="Path 62" class="cls-23" d="M87.16,82a2,2,0,0,0,2-2h0V72.5a2,2,0,0,0-2-2h-.11L68.92,82Z" transform="translate(0)"/><path id="Path_63" data-name="Path 63" class="cls-9" d="M4.42,25.42a2.1,2.1,0,0,0,2.05-1.88L7,17.92,1,21.68l.16,1.86a2.1,2.1,0,0,0,2.05,1.88Z" transform="translate(0)"/><path id="Path_64" data-name="Path 64" class="cls-6" d="M13.61,71.87v5.28H33.1a12.38,12.38,0,0,1,3-5.28Z" transform="translate(0)"/><path id="Path_65" data-name="Path 65" class="cls-8" d="M11.59,75.06v.49H33.66A12.41,12.41,0,0,1,35,73.2H13.61C12,73.2,11.59,74,11.59,75.06Z" transform="translate(0)"/><g id="Group_17" data-name="Group 17"><path id="Path_66" data-name="Path 66" class="cls-8" d="M106.93,65.65c-6.62,0-13.3,3.85-13.3,12.46v3.13h2.14V78.11c0-7.61,6-10.32,11.16-10.32h26.61a10.67,10.67,0,0,1,10.18,10.32v3.13h2.14V78.11c0-7.13-6.51-12.46-12.32-12.46Z" transform="translate(0)"/></g><path id="Path_67" data-name="Path 67" class="cls-6" d="M47.31,27.45V68.32a12.73,12.73,0,0,1,2.4.72l.11-.11V30.84C49.82,28.51,48.81,27.64,47.31,27.45Z" transform="translate(0)"/></g></g></svg>