<svg id="Layer_1" data-name="Layer 1" xmlns="http://www.w3.org/2000/svg" viewBox="0 0 150.94 76.87"><defs><style>.cls-1{fill:#b2b2b2;}.cls-2{fill:#ff4000;}.cls-15,.cls-3{fill:#e7a905;}.cls-12,.cls-4{fill:#2e2e2e;}.cls-5{fill:#b3b3b4;}.cls-6{fill:#6b6b6b;}.cls-7{fill:#3a3b3b;}.cls-13,.cls-8{fill:#fecd31;}.cls-11,.cls-9{fill:#4a7085;}.cls-10{fill:#d0eef9;}.cls-11,.cls-15{opacity:0.5;}.cls-11,.cls-12,.cls-13,.cls-15{isolation:isolate;}.cls-12,.cls-14{opacity:0.4;}.cls-13{opacity:0.8;}.cls-16{fill:#d1d1d1;}</style></defs><g id="Group_5944" data-name="Group 5944"><path id="Path_1" data-name="Path 1" class="cls-1" d="M149.14,75.54c0,.73-33.28,1.33-74.33,1.33S.47,76.27.47,75.54,33.75,74.2,74.81,74.2,149.14,74.8,149.14,75.54Z"/><g id="Group_15" data-name="Group 15"><path id="Path_2" data-name="Path 2" class="cls-2" d="M148.77,56.48A1.62,1.62,0,0,1,147.05,58h0a1.62,1.62,0,0,1-1.73-1.49V54.19a1.62,1.62,0,0,1,1.73-1.48h0a1.62,1.62,0,0,1,1.72,1.48Z"/><path id="Path_3" data-name="Path 3" class="cls-3" d="M146.73,64.16H145V52.05h1.74Z"/><path id="Path_4" data-name="Path 4" class="cls-4" d="M17.43,62.88H145V52.17H50.61V46H38.9S17.43,51,17.43,62.88Z"/><path id="Rectangle_2" data-name="Rectangle 2" class="cls-4" d="M54.75,53.71H80.07a2.13,2.13,0,0,1,2.12,2.13v7.93a2.13,2.13,0,0,1-2.12,2.13H54.75a2.14,2.14,0,0,1-2.13-2.13V55.84A2.14,2.14,0,0,1,54.75,53.71Z"/><path id="Path_5" data-name="Path 5" class="cls-5" d="M54.87,65.9h1.42V53.71H54.87Zm11.4,0h1.42V53.71H66.27Zm11.4-12.19V65.9h1.42V53.71Z"/><path id="Path_6" data-name="Path 6" class="cls-6" d="M74.82,55.8a1.28,1.28,0,0,1-1.08,1.43,1.26,1.26,0,0,1-.35-2.5h.18A1.17,1.17,0,0,1,74.82,55.8Z"/><g id="Group_2" data-name="Group 2"><path id="Path_7" data-name="Path 7" class="cls-7" d="M46.89,64.21A11.54,11.54,0,1,1,35.35,52.68h0A11.53,11.53,0,0,1,46.89,64.21Z"/><path id="Path_8" data-name="Path 8" class="cls-5" d="M41.13,64.21a5.78,5.78,0,1,1-5.78-5.78h0a5.77,5.77,0,0,1,5.77,5.78Z"/><g id="Group_1" data-name="Group 1"><path id="Path_9" data-name="Path 9" class="cls-6" d="M34.94,59.06l-.23,0a.34.34,0,0,0-.28.38h0a.34.34,0,0,0,.38.28h0l.16,0h0a.34.34,0,0,0-.08-.68h0Zm-3.07,1.43a.35.35,0,0,0-.24.1l-.17.18a.34.34,0,0,0,0,.48.33.33,0,0,0,.23.09.36.36,0,0,0,.25-.11l0,0,.05,0h0l.08-.09a.34.34,0,0,0,0-.47.33.33,0,0,0-.23-.1ZM30.51,64h0a.33.33,0,0,0-.33.35h0a1.93,1.93,0,0,0,0,.24.34.34,0,0,0,.34.31h0a.34.34,0,0,0,.32-.34,2.35,2.35,0,0,1,0-.26.34.34,0,0,0-.34-.3Zm1.59,3.43a.33.33,0,0,0-.25.11.34.34,0,0,0,0,.48h0l.18.15a.35.35,0,0,0,.22.08.34.34,0,0,0,.26-.12.36.36,0,0,0,0-.47l-.2-.16a.32.32,0,0,0-.21-.08Zm3.8,1.22h0l-.27,0a.32.32,0,0,0-.28.35.34.34,0,0,0,.34.32h0l.24,0a.34.34,0,0,0,0-.68Zm3.3-1.85a.36.36,0,0,0-.27.12l-.1.12,0,.05a.34.34,0,0,0,0,.48h0a.35.35,0,0,0,.22.08.37.37,0,0,0,.26-.12l.14-.18a.32.32,0,0,0-.05-.47h0a.33.33,0,0,0-.21-.07Zm.95-3.67h0a.34.34,0,0,0-.28.38h0c0,.07,0,.13,0,.2a.35.35,0,0,0,.34.31h0a.34.34,0,0,0,.3-.37c0-.09,0-.17,0-.23a.34.34,0,0,0-.34-.3Zm-2-3.23a.34.34,0,0,0-.34.34.35.35,0,0,0,.14.28l.16.12a.31.31,0,0,0,.21.07.34.34,0,0,0,.27-.13.34.34,0,0,0-.05-.47h0L38.39,60a.36.36,0,0,0-.2-.06Z"/></g><path id="Path_10" data-name="Path 10" class="cls-6" d="M38.12,64.21a2.77,2.77,0,1,1-2.77-2.77,2.77,2.77,0,0,1,2.77,2.77Z"/><path id="Path_11" data-name="Path 11" class="cls-5" d="M36.44,64.21a1.09,1.09,0,1,1-1.09-1.09A1.09,1.09,0,0,1,36.44,64.21Z"/></g><g id="Group_4" data-name="Group 4"><path id="Path_12" data-name="Path 12" class="cls-7" d="M113.78,64.21a11.54,11.54,0,1,1-11.54-11.53h0a11.54,11.54,0,0,1,11.54,11.53Z"/><path id="Path_13" data-name="Path 13" class="cls-5" d="M108,64.21a5.78,5.78,0,1,1-5.78-5.78A5.78,5.78,0,0,1,108,64.21Z"/><g id="Group_3" data-name="Group 3"><path id="Path_14" data-name="Path 14" class="cls-6" d="M101.83,59.06l-.23,0a.34.34,0,0,0-.28.38h0a.34.34,0,0,0,.38.28h0l.16,0h0a.34.34,0,1,0-.08-.68h0Zm-3.07,1.43a.35.35,0,0,0-.24.1l-.17.18a.34.34,0,0,0,0,.48h0a.35.35,0,0,0,.23.09.36.36,0,0,0,.25-.11l0,0,0,0h0l.08-.09a.34.34,0,0,0,0-.47.33.33,0,0,0-.23-.1ZM97.4,64h0a.33.33,0,0,0-.33.34h0a1.93,1.93,0,0,0,0,.24.34.34,0,0,0,.34.31h0a.34.34,0,0,0,.32-.34,2.35,2.35,0,0,1,0-.26.34.34,0,0,0-.34-.3ZM99,67.46a.33.33,0,0,0-.25.11.34.34,0,0,0,0,.48h0l.18.15a.35.35,0,0,0,.48,0,.36.36,0,0,0,0-.47l-.2-.16a.32.32,0,0,0-.21-.08Zm3.8,1.22h0l-.26,0a.33.33,0,0,0-.29.35.34.34,0,0,0,.34.32h0l.24,0a.34.34,0,0,0,0-.68Zm3.3-1.85a.32.32,0,0,0-.26.12l-.1.12,0,.05a.33.33,0,0,0,0,.47h0a.35.35,0,0,0,.48,0h0l.15-.18a.35.35,0,0,0-.07-.48.31.31,0,0,0-.2-.07Zm1-3.67H107a.34.34,0,0,0-.28.38h0a1.36,1.36,0,0,1,0,.2.35.35,0,0,0,.35.31h0a.34.34,0,0,0,.3-.37c0-.09,0-.17,0-.23a.34.34,0,0,0-.34-.3Zm-2-3.23a.34.34,0,0,0-.34.34.35.35,0,0,0,.14.28l.16.12a.33.33,0,0,0,.21.07.34.34,0,0,0,.27-.13.33.33,0,0,0,0-.47h0l-.19-.15a.36.36,0,0,0-.2-.06Z"/></g><path id="Path_15" data-name="Path 15" class="cls-6" d="M105,64.21a2.77,2.77,0,1,1-2.77-2.77A2.77,2.77,0,0,1,105,64.21Z"/><path id="Path_16" data-name="Path 16" class="cls-5" d="M103.33,64.21a1.09,1.09,0,1,1-1.09-1.09,1.09,1.09,0,0,1,1.09,1.09Z"/></g><g id="Group_6" data-name="Group 6"><path id="Path_17" data-name="Path 17" class="cls-7" d="M138.44,64.21a11.54,11.54,0,1,1-11.53-11.53h0a11.53,11.53,0,0,1,11.53,11.53Z"/><path id="Path_18" data-name="Path 18" class="cls-5" d="M132.69,64.21a5.79,5.79,0,1,1-5.78-5.78,5.78,5.78,0,0,1,5.78,5.78Z"/><g id="Group_5" data-name="Group 5"><path id="Path_19" data-name="Path 19" class="cls-6" d="M126.49,59.06l-.22,0a.34.34,0,0,0-.29.38h0a.34.34,0,0,0,.39.28h0l.15,0h0a.33.33,0,0,0,.29-.38.34.34,0,0,0-.38-.3h0Zm-3.07,1.43a.35.35,0,0,0-.24.1l-.17.18a.34.34,0,0,0,0,.48.31.31,0,0,0,.22.09.33.33,0,0,0,.25-.11l0,0,0,0h0l.08-.09a.34.34,0,0,0,0-.47.31.31,0,0,0-.24-.1ZM122.06,64h0a.34.34,0,0,0-.33.34h0c0,.08,0,.16,0,.24a.34.34,0,0,0,.34.31h0a.33.33,0,0,0,.31-.34c0-.09,0-.18,0-.26a.34.34,0,0,0-.34-.3Zm1.59,3.43a.36.36,0,0,0-.25.11.34.34,0,0,0,0,.48h0l.18.15a.35.35,0,0,0,.22.08.32.32,0,0,0,.26-.12.34.34,0,0,0,0-.47l-.19-.16a.35.35,0,0,0-.22-.08Zm3.8,1.22h0l-.26,0a.33.33,0,0,0-.29.35.34.34,0,0,0,.34.32h0l.24,0a.34.34,0,0,0,0-.68Zm3.3-1.85a.32.32,0,0,0-.26.12l-.1.12,0,.05a.33.33,0,0,0,0,.47h0a.35.35,0,0,0,.22.08.37.37,0,0,0,.26-.12l.15-.18a.34.34,0,0,0-.05-.47h0a.31.31,0,0,0-.21-.07Zm.95-3.67h0a.34.34,0,0,0-.29.38h0l0,.2a.33.33,0,0,0,.34.31h0a.34.34,0,0,0,.3-.37,1.4,1.4,0,0,0,0-.23.36.36,0,0,0-.35-.3Zm-2-3.23a.35.35,0,0,0-.28.14.34.34,0,0,0,.08.47h0l.16.12a.33.33,0,0,0,.21.07.34.34,0,0,0,.22-.6h0l-.18-.15A.36.36,0,0,0,129.74,59.93Z"/></g><path id="Path_20" data-name="Path 20" class="cls-6" d="M129.67,64.21a2.77,2.77,0,1,1-2.76-2.77,2.77,2.77,0,0,1,2.76,2.77Z"/><path id="Path_21" data-name="Path 21" class="cls-5" d="M128,64.21a1.09,1.09,0,0,1-1.1,1.09,1.09,1.09,0,0,1,0-2.18A1.09,1.09,0,0,1,128,64.21Z"/></g><path id="Path_22" data-name="Path 22" class="cls-8" d="M22.31,64.21a13.06,13.06,0,0,1,18.07-12l.12-.12V11.69c0-2.84-1.42-3.64-3.42-3.64H15.83c-4.25,0-5.73,3.14-6.73,5.62S3.77,25.88,3.15,27.48s-1,1.51-1,4.53v32.7c0,2.72.7,4.14,3.83,4.14H22.37S22.31,65.85,22.31,64.21Z"/><path id="Path_23" data-name="Path 23" class="cls-7" d="M5.15,31.3A6.56,6.56,0,0,1,6,27.42c.53-1.37,4.24-9.72,5.1-11.85s2.13-4.82,5.78-4.82H30.27c1.6,0,1.78.48,1.78,1.9s0,18.7,0,18.7Z"/><path id="Path_24" data-name="Path 24" class="cls-9" d="M16.9,11.46c-3.09,0-4.23,2.17-5.12,4.38L6.68,27.67l-.36.83a4.3,4.3,0,0,0-.44,2.09l25.45.05c0-1.31,0-18,0-18,0-1.19,0-1.19-1.07-1.19Z"/><path id="Path_25" data-name="Path 25" class="cls-10" d="M3.79,52.05A2.12,2.12,0,0,1,2,54.36H2A2.12,2.12,0,0,1,.11,52.05V48.51A2.12,2.12,0,0,1,2,46.2H2a2.12,2.12,0,0,1,1.84,2.31Z"/><path id="Path_26" data-name="Path 26" class="cls-3" d="M31.18,33.23a.63.63,0,0,1-.63.64H25.66a.64.64,0,0,1-.64-.64h0a.64.64,0,0,1,.64-.64h4.88a.63.63,0,0,1,.64.64Z"/><g id="Group_7" data-name="Group 7"><path id="Path_27" data-name="Path 27" class="cls-5" d="M6.61,10.62a1.85,1.85,0,0,0-2,1.66,1.93,1.93,0,0,0,0,.34v6.25A1.57,1.57,0,0,0,6,20.61a2.16,2.16,0,0,0,.36,0,.36.36,0,1,0,0-.71h0c-.73,0-1-.3-1-1V12.62a1.14,1.14,0,0,1,.95-1.29H12A.35.35,0,0,0,12.3,11a.37.37,0,0,0-.34-.34Z"/></g><path id="Path_28" data-name="Path 28" class="cls-3" d="M2.13,56.58c-1.66,0-2.13.89-2.13,2v6.16c0,2.72.7,4.14,3.83,4.14H22.37s-.06-3-.06-4.64a13,13,0,0,1,2.48-7.63Z"/><g id="Group_8" data-name="Group 8"><path id="Path_29" data-name="Path 29" class="cls-3" d="M5.06,31.3,5,53.42a.09.09,0,0,0,0,.06.07.07,0,0,0,.06,0H16.19a.1.1,0,0,0,.08-.06C20.4,42.81,31.92,43.79,32,43.81a.09.09,0,0,0,.07,0,.09.09,0,0,0,0-.06V31.35a.09.09,0,0,0-.18,0V43.62c-.81-.06-11.76-.64-15.82,9.71H5.22c0-.18,0-22,0-22a.08.08,0,0,0-.08-.09.09.09,0,0,0-.09.08Z"/></g><g id="Group_9" data-name="Group 9"><path id="Path_30" data-name="Path 30" class="cls-8" d="M14.71,60.63H5A1.09,1.09,0,0,1,6,59.53h7.58a1.09,1.09,0,0,1,1.09,1.1Z"/><path id="Path_31" data-name="Path 31" class="cls-8" d="M14.71,62.89H5A1.09,1.09,0,0,1,6,61.8h7.58a1.09,1.09,0,0,1,1.09,1.09Z"/><path id="Path_32" data-name="Path 32" class="cls-8" d="M14.71,65.15H5A1.09,1.09,0,0,1,6,64.06h7.58a1.09,1.09,0,0,1,1.09,1.09Z"/></g><path id="Path_33" data-name="Path 33" class="cls-7" d="M7.44,25.53c0,.83-.38,1.15-.84,1.15h0c-.47,0-.85-.32-.85-1.15V15.41c0-.83.38-1.06.85-1.06h0c.46,0,.84.23.84,1.06Z"/><path id="Path_34" data-name="Path 34" class="cls-11" d="M28.77,23.86c-.63,1.74-1.38,4.69-1.88,6.77h4.2c.07-.38.16-.78.24-1.2V21A4.43,4.43,0,0,0,28.77,23.86ZM10.23,22l1.2,2.28-2.1,2.14-1.62-1.1-1,2.39-.36.83a4.3,4.3,0,0,0-.44,2.09h4.84l.46-1.3-.65-1.85,2.05-2.09,3,1.56.45-.3-5.35-5.3Z"/><path id="Path_35" data-name="Path 35" class="cls-11" d="M16.9,11.46l-.22,0L8.49,30.07v.53h1.88l8.42-19.14Zm3.48,0L12,30.6h5.39l8.42-19.15Z"/><g id="Group_10" data-name="Group 10"><path id="Path_36" data-name="Path 36" class="cls-3" d="M40,52a12.73,12.73,0,0,1,8,14.25l1.4.26a14.14,14.14,0,0,0-8.91-15.84Z"/></g><path id="Path_37" data-name="Path 37" class="cls-12" d="M80.07,65.9a2.13,2.13,0,0,0,2.12-2.13h0V55.84a2.12,2.12,0,0,0-2.12-2.13h-.13L60.73,65.9Z"/><path id="Path_38" data-name="Path 38" class="cls-3" d="M2.13,55.17v5.59H22.79A13,13,0,0,1,26,55.17Z"/><path id="Path_39" data-name="Path 39" class="cls-8" d="M0,58.55v.52H23.37a12.8,12.8,0,0,1,1.42-2.49H2.13C.47,56.58,0,57.47,0,58.55Z"/><path id="Path_40" data-name="Path 40" class="cls-8" d="M149.09,52.17H50.61V48.46h98.5Z"/><path id="Path_41" data-name="Path 41" class="cls-13" d="M74.82,52.17h74.27l0-3.71H80.67Z"/><g id="Group_11" data-name="Group 11"><path id="Path_42" data-name="Path 42" class="cls-8" d="M101,49.71c-7,0-14.09,4.08-14.09,13.2v3.31h2.27V62.91C89.19,54.84,95.56,52,101,52h28.2A11.28,11.28,0,0,1,140,62.91v3.31h2.28V62.91c0-7.56-6.9-13.2-13.06-13.2Z"/></g><path id="Path_43" data-name="Path 43" class="cls-3" d="M37.83,8.1V51.41a13.14,13.14,0,0,1,2.55.76l.12-.12V11.69C40.5,9.22,39.43,8.3,37.83,8.1Z"/><path id="Path_44" data-name="Path 44" class="cls-3" d="M150.94,48.82V7.19H52L50.29,0H28.51l1.55,7.2H43.65L53.1,48.82Z"/><g id="Group_13" data-name="Group 13"><g id="Group_12" data-name="Group 12" class="cls-14"><path id="Path_45" data-name="Path 45" class="cls-3" d="M66.62,43l-6.9-30.39H52.33L59.23,43Z"/><path id="Path_46" data-name="Path 46" class="cls-3" d="M82.75,43l-6.9-30.39H68.46L75.36,43Z"/><path id="Path_47" data-name="Path 47" class="cls-3" d="M98.88,43,92,12.65H84.59L91.49,43Z"/><path id="Path_48" data-name="Path 48" class="cls-3" d="M115,43l-6.9-30.39h-7.39L107.62,43Z"/><path id="Path_49" data-name="Path 49" class="cls-3" d="M131.14,43l-6.9-30.39h-7.39L123.75,43Z"/><path id="Path_50" data-name="Path 50" class="cls-3" d="M147.27,43l-6.9-30.39H133L139.88,43Z"/></g><path id="Path_51" data-name="Path 51" class="cls-15" d="M68.46,12.65l.24,1.07h6.47L81.83,43h.92l-6.9-30.39Zm-16.13,0,.24,1.07H59L65.7,43h.92l-6.9-30.39Zm88,0H133l.24,1.07h6.47L146.35,43h.92Zm-39.65,0,.24,1.07h6.47L114.09,43H115l-6.9-30.39Zm16.13,0,.25,1.07h6.46L130.22,43h.92l-6.9-30.39Zm-32.26,0,.24,1.07H91.3L98,43h.92L92,12.65Z"/></g><rect id="Rectangle_3" data-name="Rectangle 3" class="cls-7" x="40.5" y="33.34" width="2.84" height="12.77"/><path id="Path_52" data-name="Path 52" class="cls-16" d="M42.24,7.2H41.07l4.19,39,1.16-.12Z"/><g id="Group_14" data-name="Group 14"><rect id="Rectangle_4" data-name="Rectangle 4" class="cls-7" x="43.48" y="23.54" width="2.32" height="22.64" transform="translate(-3.47 4.97) rotate(-6.14)"/></g><path id="Path_53" data-name="Path 53" class="cls-8" d="M45.27,40.43a1.91,1.91,0,1,1-1.91-1.91A1.91,1.91,0,0,1,45.27,40.43Z"/><path id="Path_54" data-name="Path 54" class="cls-8" d="M50.29,0H28.51l.37,1.69h21.8Z"/></g></g></svg>