<svg id="Layer_1" data-name="Layer 1" xmlns="http://www.w3.org/2000/svg" viewBox="0 0 150 110.52"><defs><style>.cls-1{fill:#b2b2b2;}.cls-2{fill:#3a3b3b;}.cls-3,.cls-4,.cls-9{fill:#d1d1d1;}.cls-4{opacity:0.5;}.cls-20,.cls-24,.cls-26,.cls-4,.cls-8,.cls-9{isolation:isolate;}.cls-5{fill:#4b5150;}.cls-26,.cls-6{fill:#fecd31;}.cls-7,.cls-8{fill:#e7a905;}.cls-8{opacity:0.3;}.cls-20,.cls-26,.cls-9{opacity:0.4;}.cls-10{fill:#d9871f;}.cls-11{fill:#febd31;}.cls-12{fill:#21201b;}.cls-13{fill:#8c8c8c;}.cls-14{fill:#121312;}.cls-15{fill:#a3853d;}.cls-16{fill:#836a30;}.cls-17,.cls-24{fill:#4a7085;}.cls-18{fill:#383838;}.cls-19,.cls-20{fill:#b3b3b4;}.cls-21{fill:#696969;}.cls-22{fill:#6b6b6b;}.cls-23{fill:#4a4a4a;}.cls-24{opacity:0.7;}.cls-25{fill:#38332c;}</style></defs><g id="Group_5941" data-name="Group 5941"><path id="Path_1" data-name="Path 1" class="cls-1" d="M150,108.81c0,1-32.37,1.71-72.29,1.71s-72.29-.76-72.29-1.71,32.36-1.72,72.29-1.72S150,107.86,150,108.81Z" transform="translate(0)"/><g id="Group_9" data-name="Group 9"><path id="Path_2" data-name="Path 2" class="cls-2" d="M23.74,82.85,39,105.14l5.3,2.06V108s-20.71-1.1-24.09-1.3a15.63,15.63,0,0,1-8.63-3.83c-2.39-1.93-1.77-9.59.1-13a20,20,0,0,1,8.87-8Z" transform="translate(0)"/><path id="Path_3" data-name="Path 3" class="cls-2" d="M23.75,82.85l-2.63-.8,17,25.66,6.21.34v-.85L39,105.14Z" transform="translate(0)"/><path id="Path_4" data-name="Path 4" class="cls-3" d="M11.72,75.94a.58.58,0,0,1-.47.66l-.2,0a.57.57,0,0,1-.66-.47h0L7.71,59.92a.59.59,0,0,1,.48-.67h0l.19,0a.93.93,0,0,1,.84.67Z" transform="translate(0)"/><path id="Path_5" data-name="Path 5" class="cls-4" d="M8.76,59.32a.59.59,0,0,0-.29.6l2.68,16.24a.56.56,0,0,0,.25.38.56.56,0,0,0,.32-.6l-2.5-16A.93.93,0,0,0,8.76,59.32Z" transform="translate(0)"/><path id="Path_6" data-name="Path 6" class="cls-5" d="M9.83,59.33a1.32,1.32,0,0,1-1.07,1.5l-.43.07a1.31,1.31,0,0,1-1.49-1.07l-6-36.52a1.3,1.3,0,0,1,1.07-1.5l.43-.06a2.1,2.1,0,0,1,1.9,1.48Z" transform="translate(0)"/><path id="Path_7" data-name="Path 7" class="cls-6" d="M6.33,23.72A1.3,1.3,0,0,1,5,25L1.26,24.7A1.3,1.3,0,0,1,0,23.37L1.24,10.18c0-.71.45-.48,1.16-.47l3,.08a1.3,1.3,0,0,1,1.27,1.33Z" transform="translate(0)"/><path id="Path_8" data-name="Path 8" class="cls-6" d="M19.72,15.65s-8-9.59-11.53-13.44a3.6,3.6,0,0,0-5-.85,3.61,3.61,0,0,0-.3.25,12.73,12.73,0,0,0-2.07,2c-1.14,1.37-.65,3.08.48,7.62s19.32,72,19.32,72h2.44Z" transform="translate(0)"/><g id="Group_1" data-name="Group 1"><path id="Path_9" data-name="Path 9" class="cls-7" d="M19.09,69.91l-8.42,6.2a.65.65,0,0,0-.18.84l4.32,7.68A.65.65,0,1,0,15.94,84l-4-7.18,8-5.86a.65.65,0,0,0-.74-1.06l0,0Z" transform="translate(0)"/></g><path id="Path_10" data-name="Path 10" class="cls-8" d="M20.84,38.46,19.72,15.65s-8-9.59-11.53-13.44a3.6,3.6,0,0,0-5-.85,3.61,3.61,0,0,0-.3.25,12.73,12.73,0,0,0-2.07,2c-1.14,1.37-.65,3.08.48,7.62.6,2.39,5.91,22.17,10.81,40.39Z" transform="translate(0)"/><g id="Group_2" data-name="Group 2"><path id="Path_11" data-name="Path 11" class="cls-3" d="M5.38,1.76a.65.65,0,0,0,.41.82h0L25.92,9.32a.65.65,0,0,0,.81-.44.64.64,0,0,0-.39-.79L6.21,1.35A.66.66,0,0,0,5.38,1.76Z" transform="translate(0)"/></g><path id="Path_12" data-name="Path 12" class="cls-9" d="M26.2,8.74,6.07,2a.63.63,0,0,0-.67.18.65.65,0,0,0,.4.41L25.93,9.32a.65.65,0,0,0,.67-.17A.65.65,0,0,0,26.2,8.74Z" transform="translate(0)"/><path id="Path_13" data-name="Path 13" class="cls-7" d="M59.33,21.45s-5.8-5.2-6.78-6-1.18,0-1.54.45-2.15,3.49-2.15,3.49Z" transform="translate(0)"/><path id="Path_14" data-name="Path 14" class="cls-5" d="M51,15.93c.07-.09.13-.2.2-.3L26.75,7.78a.7.7,0,0,0-.85.41l-.35.9a.61.61,0,0,0,.35.79l0,0,23.94,7.83C50.35,17,50.83,16.16,51,15.93Z" transform="translate(0)"/><path id="Path_15" data-name="Path 15" class="cls-10" d="M7.9,2.09A2.09,2.09,0,1,1,5.81,0,2.08,2.08,0,0,1,7.9,2.09Z" transform="translate(0)"/><circle id="Ellipse_1" data-name="Ellipse 1" class="cls-11" cx="5.81" cy="2.09" r="1.31"/><path id="Path_16" data-name="Path 16" class="cls-10" d="M3.63,22.65a1.37,1.37,0,1,1-1.37-1.38,1.36,1.36,0,0,1,1.37,1.38Z" transform="translate(0)"/><path id="Path_17" data-name="Path 17" class="cls-8" d="M19.72,15.65l-1.67-2a6.42,6.42,0,0,0-3.2,0,2.66,2.66,0,0,0-1.56,1.74c-.56,1.92.57,3.41,4,4.63L20,21Z" transform="translate(0)"/><path id="Path_18" data-name="Path 18" class="cls-6" d="M90.52,48.33S69.15,28.63,64,24.41s-8.93-5-16-6.17-24.94-5-28.84-5.68c-2.21-.36-3.47-.52-4.4-.16a2.69,2.69,0,0,0-1.57,1.74c-.56,1.92.57,3.41,4,4.63,4.36,1.54,29.54,10.84,31.57,11.65s2.25.76,5.39,3.3,31.05,24,31.05,24Z" transform="translate(0)"/><circle id="Ellipse_2" data-name="Ellipse 2" class="cls-10" cx="15.9" cy="14.93" r="1.37"/><g id="Group_3" data-name="Group 3"><path id="Path_19" data-name="Path 19" class="cls-3" d="M56.59,30.72a1.18,1.18,0,0,0-.45.89l8.12,14.07a1,1,0,0,0,1.1.24A.66.66,0,0,0,65.6,45h0L57.48,31a.65.65,0,0,0-.89-.24Z" transform="translate(0)"/></g><path id="Path_20" data-name="Path 20" class="cls-4" d="M57,31.44a.64.64,0,0,0-.74-.28,1.65,1.65,0,0,0-.11.45l8.12,14.07a1.14,1.14,0,0,0,.92.3.69.69,0,0,0-.07-.47Z" transform="translate(0)"/><path id="Path_21" data-name="Path 21" class="cls-5" d="M83.16,70.51,66.39,44.22l-3.14,1.62L82.51,78.31Z" transform="translate(0)"/><circle id="Ellipse_3" data-name="Ellipse 3" class="cls-10" cx="56.73" cy="31.15" r="2.52"/><path id="Path_22" data-name="Path 22" class="cls-11" d="M58.35,31.15a1.63,1.63,0,1,1-1.62-1.63h0A1.63,1.63,0,0,1,58.35,31.15Z" transform="translate(0)"/><path id="Path_23" data-name="Path 23" class="cls-12" d="M23.94,83.09A2.11,2.11,0,1,1,21.83,81a2.11,2.11,0,0,1,2.11,2.11Z" transform="translate(0)"/><path id="Path_24" data-name="Path 24" class="cls-13" d="M23.17,83.09a1.34,1.34,0,1,1-1.34-1.33h0A1.33,1.33,0,0,1,23.17,83.09Z" transform="translate(0)"/><path id="Path_25" data-name="Path 25" class="cls-12" d="M17.58,85.07a1.87,1.87,0,1,1-1.87-1.86A1.86,1.86,0,0,1,17.58,85.07Z" transform="translate(0)"/><path id="Path_26" data-name="Path 26" class="cls-13" d="M17,85.07a1.24,1.24,0,1,1-1.24-1.23h0A1.24,1.24,0,0,1,17,85.07Z" transform="translate(0)"/><path id="Path_27" data-name="Path 27" class="cls-10" d="M12.26,76.45A1.3,1.3,0,1,1,11,75.15a1.3,1.3,0,0,1,1.29,1.3Z" transform="translate(0)"/><path id="Path_28" data-name="Path 28" class="cls-11" d="M11.81,76.45a.85.85,0,0,1-.84.84.84.84,0,0,1,0-1.68h0A.85.85,0,0,1,11.81,76.45Z" transform="translate(0)"/><circle id="Ellipse_4" data-name="Ellipse 4" class="cls-10" cx="19.73" cy="70.32" r="1.41"/><path id="Path_29" data-name="Path 29" class="cls-11" d="M20.55,70.32a.81.81,0,0,1-.82.83.82.82,0,0,1-.82-.82.81.81,0,0,1,.82-.83h0A.82.82,0,0,1,20.55,70.32Z" transform="translate(0)"/><path id="Path_30" data-name="Path 30" class="cls-8" d="M79.86,53.58l5.36,4.11,5.3-9.36s-5-4.56-10.66-9.76Z" transform="translate(0)"/><rect id="Rectangle_2" data-name="Rectangle 2" class="cls-14" x="85.62" y="84.64" width="30.84" height="3.82"/><path id="Path_31" data-name="Path 31" class="cls-7" d="M85.87,84.79H84.65a3.22,3.22,0,0,1-3.18-3.28,2.81,2.81,0,0,1,0-.29V66c0-5.41,2.49-13.2,3.36-15.91S86.25,46,89.93,46h16.68c3.61,0,4.22,2,4.22,4.83V85Z" transform="translate(0)"/><path id="Path_32" data-name="Path 32" class="cls-15" d="M81.48,80.25v1a3.24,3.24,0,0,0,2.89,3.55l.28,0h1.22l25,.2V80.25Z" transform="translate(0)"/><path id="Path_33" data-name="Path 33" class="cls-16" d="M144.79,80.25h-34V85h34a1.72,1.72,0,0,0,1.93-1.5.88.88,0,0,0,0-.16V80.25Z" transform="translate(0)"/><path id="Path_34" data-name="Path 34" class="cls-17" d="M106.75,48.05H89.82c-1.46,0-2.58.28-3.47,3.2-.65,2.09-3.22,9.84-3.22,14v10.4c0,1.3.66,1.3,1.38,1.3l24.08,0V50.65C108.59,49.3,108.38,48.05,106.75,48.05Z" transform="translate(0)"/><g id="Group_6" data-name="Group 6"><g id="Group_4" data-name="Group 4"><path id="Path_35" data-name="Path 35" class="cls-18" d="M135.35,87.67H66.09a10.13,10.13,0,0,0,0,20.26h69.26a10.13,10.13,0,0,0,0-20.26Zm0,18.64H66.09a8.51,8.51,0,0,1,0-17h69.26a8.51,8.51,0,1,1,0,17Z" transform="translate(0)"/><path id="Path_36" data-name="Path 36" class="cls-18" d="M88.6,87.67h1.3v-1H88.6Zm-4.54,0h1.3v-1h-1.3Zm9.08,0h1.3v-1h-1.3Zm4.55,0H99v-1h-1.3Zm-37.12.5.49.85a9.63,9.63,0,0,1,1.29-.63L62,87.48a10.75,10.75,0,0,0-1.41.68Zm5.25-1.47,0,1h1.32v-1H65.82Zm36.41,1h1.3v-1h-1.3Zm-31.81,0h1.3v-1h-1.3Zm4.54,0h1.3v-1H75Zm4.55,0h1.3v-1h-1.3Zm55-.94v1h1.3v-1Zm5.39.93-.4.9a9.47,9.47,0,0,1,1.26.67l.53-.82a11,11,0,0,0-1.39-.75Zm-10.38,0h1.3v-1h-1.3Zm-71.93,3A12.83,12.83,0,0,0,56.65,92l.84.52a8.56,8.56,0,0,1,.83-1.17Zm86.59.36-.78.6a9.63,9.63,0,0,1,.8,1.2l.85-.48a11.57,11.57,0,0,0-.87-1.32Zm2.29,6.58a10.16,10.16,0,0,0-.13-1.56l-1,.15a9.75,9.75,0,0,1,.13,1.43Zm-39.67-10h1.3v-1h-1.3Zm4.55,0h1.3v-1h-1.3Zm4.54,0h1.3v-1h-1.3Zm4.55,0h1.3v-1h-1.3Zm4.54,0h1.3v-1H125ZM77.16,108.9h1.3v-1h-1.3Zm45.45,0h1.3v-1h-1.3Zm-18.18,0h1.3v-1h-1.3Zm4.54,0h1.3v-1H109Zm4.55,0h1.3v-1h-1.3Zm13.63,0h1.29v-1h-1.3Zm-9.09,0h1.3v-1h-1.3Zm26.27-6.42.87.45a12.3,12.3,0,0,0,.63-1.44l-.93-.33a11,11,0,0,1-.57,1.32ZM141,106.19l.55.8a11.3,11.3,0,0,0,1.23-1l-.66-.73a9.72,9.72,0,0,1-1.12.89Zm-4.68,1.69.09,1a11.66,11.66,0,0,0,1.55-.26l-.23-1a9.82,9.82,0,0,1-1.42.25Zm-4.64,1H133v-1h-1.3Zm-40.91,0h1.3v-1h-1.3Zm-22.72,0h1.3v-1h-1.3Zm-5-.43a13,13,0,0,0,1.53.33l.14-1a11.22,11.22,0,0,1-1.4-.29Zm-4.71-2.76a10.5,10.5,0,0,0,1.19,1l.59-.79A9.75,9.75,0,0,1,59,105Zm14.3,3.19h1.3v-1h-1.3Zm-17.14-7.85a12.27,12.27,0,0,0,.57,1.46l.89-.41a9.06,9.06,0,0,1-.52-1.34Zm.69-5.26-.95-.19a11.47,11.47,0,0,0-.2,1.56l1,0a11.45,11.45,0,0,1,.17-1.42ZM95.34,108.9h1.3v-1h-1.3Zm4.54,0h1.3v-1h-1.3Zm-13.63,0h1.3v-1h-1.3Zm-4.55,0H83v-1H81.7Z" transform="translate(0)"/></g><path id="Path_37" data-name="Path 37" class="cls-14" d="M66.09,89.29a8.51,8.51,0,0,0,0,17h69.25a8.51,8.51,0,0,0,0-17Z" transform="translate(0)"/><g id="Group_5" data-name="Group 5"><path id="Path_38" data-name="Path 38" class="cls-19" d="M86.8,103.36a2.71,2.71,0,1,1-2.71-2.71,2.71,2.71,0,0,1,2.71,2.71Z" transform="translate(0)"/><path id="Path_39" data-name="Path 39" class="cls-19" d="M93.45,103.36a2.71,2.71,0,1,1-2.71-2.71A2.7,2.7,0,0,1,93.45,103.36Z" transform="translate(0)"/><path id="Path_40" data-name="Path 40" class="cls-19" d="M100.11,103.36a2.71,2.71,0,1,1-2.71-2.71A2.7,2.7,0,0,1,100.11,103.36Z" transform="translate(0)"/><path id="Path_41" data-name="Path 41" class="cls-19" d="M106.76,103.36a2.71,2.71,0,1,1-2.7-2.71,2.7,2.7,0,0,1,2.7,2.71Z" transform="translate(0)"/><path id="Path_42" data-name="Path 42" class="cls-19" d="M113.42,103.36a2.7,2.7,0,1,1-2.71-2.71,2.7,2.7,0,0,1,2.71,2.71Z" transform="translate(0)"/><path id="Path_43" data-name="Path 43" class="cls-19" d="M120.07,103.36a2.71,2.71,0,1,1-2.7-2.71,2.7,2.7,0,0,1,2.7,2.71Z" transform="translate(0)"/></g><path id="Path_44" data-name="Path 44" class="cls-20" d="M117.37,100.65a2.7,2.7,0,0,0-2.7,2.71,2.53,2.53,0,0,0,.12.77H120a2.89,2.89,0,0,0,.13-.77,2.71,2.71,0,0,0-2.71-2.71Zm-33.28,0a2.71,2.71,0,0,0-2.71,2.71,2.89,2.89,0,0,0,.13.77h5.16a2.65,2.65,0,0,0-2.58-3.48Zm6.65,0a2.7,2.7,0,0,0-2.7,2.71,2.89,2.89,0,0,0,.13.77h5.16a2.89,2.89,0,0,0,.13-.77,2.71,2.71,0,0,0-2.71-2.71Zm20,0a2.7,2.7,0,0,0-2.7,2.71,2.89,2.89,0,0,0,.13.77h5.15a2.27,2.27,0,0,0,.13-.77,2.7,2.7,0,0,0-2.7-2.71Zm-13.31,0a2.66,2.66,0,0,0-2.7,2.64,2.63,2.63,0,0,0,.12.84H100a2.65,2.65,0,0,0-2.58-3.48Zm6.66,0a2.66,2.66,0,0,0-2.58,3.48h5.16a2.53,2.53,0,0,0,.12-.77,2.7,2.7,0,0,0-2.7-2.71Z" transform="translate(0)"/><path id="Path_45" data-name="Path 45" class="cls-21" d="M68.7,92.23c-3.47,0-6.29,2.5-6.29,5.57s2.82,5.56,6.29,5.56h64c3.46,0,6.29-2.5,6.29-5.56s-2.83-5.57-6.29-5.57Z" transform="translate(0)"/><path id="Path_46" data-name="Path 46" class="cls-19" d="M73,97.8A6.77,6.77,0,1,1,66.23,91,6.76,6.76,0,0,1,73,97.8Z" transform="translate(0)"/><path id="Path_47" data-name="Path 47" class="cls-22" d="M71.17,97.8a4.94,4.94,0,1,1-4.94-4.94,4.94,4.94,0,0,1,4.94,4.94Z" transform="translate(0)"/><path id="Path_48" data-name="Path 48" class="cls-23" d="M132.74,92.23h-30.4l-7.1,11.13h37.5c3.47,0,6.29-2.5,6.29-5.56S136.21,92.23,132.74,92.23Z" transform="translate(0)"/><path id="Path_49" data-name="Path 49" class="cls-23" d="M68.78,93.57l-5.31,8.33a4.94,4.94,0,0,0,5.47-8.23l-.16-.1Z" transform="translate(0)"/><path id="Path_50" data-name="Path 50" class="cls-19" d="M142,97.8A6.77,6.77,0,1,1,135.22,91h0A6.77,6.77,0,0,1,142,97.8Z" transform="translate(0)"/><path id="Path_51" data-name="Path 51" class="cls-22" d="M140.16,97.8a4.95,4.95,0,1,1-4.95-4.94h0A4.94,4.94,0,0,1,140.16,97.8Z" transform="translate(0)"/><path id="Path_52" data-name="Path 52" class="cls-23" d="M137.59,93.47l-5.3,8.31a4.94,4.94,0,0,0,5.83-8A5.84,5.84,0,0,0,137.59,93.47Z" transform="translate(0)"/></g><path id="Path_53" data-name="Path 53" class="cls-24" d="M108.59,57.92c-.76-.21-2.09.82-2.68,2.49-.91,2.52-2.12,7.93-2.12,7.93H96.71c-1.86,0-2.38.55-2.38,1s.09,1.43.74,1.43h2.37v.46a4.63,4.63,0,0,0-3,3.66H87.21l3.49-9.79-.56-1.6,1.77-1.81,2.59,1.35.39-.26-4.62-4.57-.39.54,1,2-1.81,1.85-2-1.35-4,3.39c0,.22,0,.43,0,.63V75.65c0,1.3.66,1.3,1.38,1.3H88.8l0,0h5.48v0l13,0,.4-.88-.22-7.22s.7-3.19,1.22-6Z" transform="translate(0)"/><g id="Group_8" data-name="Group 8"><path id="Path_54" data-name="Path 54" class="cls-18" d="M117.93,61.18h15.66l2.27,6.08-20.37-1.21Z" transform="translate(0)"/><path id="Path_55" data-name="Path 55" class="cls-7" d="M146.74,80.25V72.46c0-1.89-1.13-4.81-5.52-5.52s-23.32-2.6-28.51-3-7.2,2.22-7.2,6.28V80.25Z" transform="translate(0)"/><path id="Path_56" data-name="Path 56" class="cls-6" d="M114.92,64.11l-2.22-.2c-5.2-.43-7.2,2.22-7.2,6.28V80.25h9.42Z" transform="translate(0)"/><g id="Group_7" data-name="Group 7"><path id="Path_57" data-name="Path 57" class="cls-6" d="M129.48,71.62H117.13A1.66,1.66,0,0,1,118.8,70h9a1.67,1.67,0,0,1,1.67,1.67Z" transform="translate(0)"/><path id="Path_58" data-name="Path 58" class="cls-6" d="M129.48,74.54H117.13a1.67,1.67,0,0,1,1.67-1.67h9a1.67,1.67,0,0,1,1.67,1.67Z" transform="translate(0)"/><path id="Path_59" data-name="Path 59" class="cls-6" d="M129.48,77.46H117.13a1.67,1.67,0,0,1,1.67-1.67h9a1.67,1.67,0,0,1,1.67,1.67h0Z" transform="translate(0)"/></g><rect id="Rectangle_3" data-name="Rectangle 3" class="cls-25" x="132.7" y="70.68" width="10.55" height="6.25" rx="1.2"/><path id="Path_60" data-name="Path 60" class="cls-25" d="M142,70.68h-1.8l-4,6.25H142a1.3,1.3,0,0,0,1.3-1.3h0V72a1.3,1.3,0,0,0-1.3-1.3Z" transform="translate(0)"/></g><path id="Path_61" data-name="Path 61" class="cls-24" d="M96.54,48.05,83.85,76.9a2.94,2.94,0,0,0,.66,0h5l12.71-28.9Zm-3.9,0L83.13,69.67v5L94.87,48.05Z" transform="translate(0)"/><path id="Path_62" data-name="Path 62" class="cls-26" d="M42.51,17.23,35.7,25.55,40,27.15l7.37-9C46,17.9,44.36,17.59,42.51,17.23Zm-4-.8-6.38,7.78,1.43.53,6.54-8Z" transform="translate(0)"/></g></g></svg>