<svg id="Layer_1" data-name="Layer 1" xmlns="http://www.w3.org/2000/svg" viewBox="0 0 155.3 125.34"><defs><style>.cls-1{fill:#b2b2b2;}.cls-2,.cls-3{fill:#6b6b6b;}.cls-11,.cls-21,.cls-26,.cls-3{opacity:0.4;}.cls-10,.cls-11,.cls-21,.cls-24,.cls-26,.cls-3,.cls-8{isolation:isolate;}.cls-4{fill:#383838;}.cls-10,.cls-5{fill:#e7a905;}.cls-26,.cls-6{fill:#fecd31;}.cls-11,.cls-7,.cls-8{fill:#d1d1d1;}.cls-8{opacity:0.5;}.cls-9{fill:#4b5150;}.cls-10{opacity:0.3;}.cls-12{fill:#d9871f;}.cls-13{fill:#febd31;}.cls-14{fill:#21201b;}.cls-15{fill:#8c8c8c;}.cls-16{fill:#121312;}.cls-17{fill:#a3853d;}.cls-18{fill:#836a30;}.cls-19,.cls-24{fill:#4a7085;}.cls-20,.cls-21{fill:#b3b3b4;}.cls-22{fill:#696969;}.cls-23{fill:#4a4a4a;}.cls-24{opacity:0.7;}.cls-25{fill:#38332c;}</style></defs><g id="Group_5946" data-name="Group 5946"><path id="Path_1" data-name="Path 1" class="cls-1" d="M155.3,123.94c0,.77-34.76,1.4-77.65,1.4S0,124.71,0,123.94s34.77-1.4,77.65-1.4S155.3,123.17,155.3,123.94Z" transform="translate(0 0)"/><g id="Group_14" data-name="Group 14"><g id="Group_4" data-name="Group 4"><g id="Group_1" data-name="Group 1"><path id="Path_2" data-name="Path 2" class="cls-2" d="M11.63,118.64a4,4,0,0,1-.35,1.48l-.36.72c-.19.39-.52.4-.73,0l-.43-.76a3.52,3.52,0,0,1-.38-1.46V113a.78.78,0,0,1,.78-.78h.7a.79.79,0,0,1,.78.78Z" transform="translate(0 0)"/></g><path id="Path_3" data-name="Path 3" class="cls-3" d="M10.85,112.24h-.47v8.84c.19.12.4,0,.54-.24l.36-.72a4,4,0,0,0,.35-1.48V113A.78.78,0,0,0,10.85,112.24Z" transform="translate(0 0)"/><path id="Path_4" data-name="Path 4" class="cls-4" d="M17.79,93.09a1,1,0,0,0-1-.75H4.18a1,1,0,0,0-1,.75L1.9,98.58A2.6,2.6,0,0,0,2.05,100l5.17,10.9a1.33,1.33,0,0,0,1.11.7h4.35a1.33,1.33,0,0,0,1.11-.7L19,100a2.6,2.6,0,0,0,.15-1.46Z" transform="translate(0 0)"/><path id="Path_5" data-name="Path 5" class="cls-2" d="M4.45,93.61a.26.26,0,0,0-.2.15L3,98.94a1.68,1.68,0,0,0,.09.89l5,10.3a.56.56,0,0,0,.39.24h4.17a.56.56,0,0,0,.39-.24l5-10.3a1.68,1.68,0,0,0,.09-.89l-1.27-5.18a.24.24,0,0,0-.19-.15Z" transform="translate(0 0)"/><g id="Group_2" data-name="Group 2"><rect id="Rectangle_2" data-name="Rectangle 2" class="cls-5" x="2.99" y="90.47" width="15.03" height="2.2" rx="0.67"/></g><g id="Group_3" data-name="Group 3"><rect id="Rectangle_3" data-name="Rectangle 3" class="cls-6" x="6.62" y="111.27" width="7.77" height="2.2" rx="0.67"/></g><path id="Path_6" data-name="Path 6" class="cls-5" d="M16.45,95.1a.87.87,0,0,1-.88.88.89.89,0,0,1-.87-.88.88.88,0,0,1,1.75,0Z" transform="translate(0 0)"/><path id="Path_7" data-name="Path 7" class="cls-5" d="M12.9,108.56a.88.88,0,1,1-.88-.87h0A.87.87,0,0,1,12.9,108.56Z" transform="translate(0 0)"/><path id="Path_8" data-name="Path 8" class="cls-5" d="M9.81,108.56a.88.88,0,1,1-.87-.87h0A.87.87,0,0,1,9.81,108.56Z" transform="translate(0 0)"/><path id="Path_9" data-name="Path 9" class="cls-5" d="M6.44,95.1a.89.89,0,0,1-.88.88.88.88,0,1,1,.88-.88Z" transform="translate(0 0)"/></g><path id="Path_10" data-name="Path 10" class="cls-7" d="M5.54,81.07a.63.63,0,0,1-.63.61h-.2a.62.62,0,0,1-.61-.63h0l.35-17.6a.61.61,0,0,1,.62-.61h.2A1,1,0,0,1,6,63.7Z" transform="translate(0 0)"/><path id="Path_11" data-name="Path 11" class="cls-8" d="M5.66,63a.63.63,0,0,0-.42.57l-.35,17.6a.59.59,0,0,0,.2.45.61.61,0,0,0,.45-.57L6,63.7A1,1,0,0,0,5.66,63Z" transform="translate(0 0)"/><path id="Path_12" data-name="Path 12" class="cls-9" d="M6.78,63.24A1.39,1.39,0,0,1,5.37,64.6H4.9a1.4,1.4,0,0,1-1.36-1.42h0l.78-39.58a1.39,1.39,0,0,1,1.41-1.37h.46A2.25,2.25,0,0,1,7.9,24.17Z" transform="translate(0 0)"/><path id="Path_13" data-name="Path 13" class="cls-6" d="M10,25.09a1.39,1.39,0,0,1-1.64,1.08h0l-3.87-1a1.4,1.4,0,0,1-1.08-1.64L7.31,9.86c.16-.75.57-.42,1.32-.27l3.12.66a1.39,1.39,0,0,1,1.07,1.65Z" transform="translate(0 0)"/><path id="Path_14" data-name="Path 14" class="cls-6" d="M25.69,19.21S19.09,7.55,16.18,2.83A3.86,3.86,0,0,0,11.07,1l-.37.2A14.62,14.62,0,0,0,8.15,2.81C6.68,4,6.86,5.92,7.18,10.92s6.3,79.5,6.3,79.5l2.57.47Z" transform="translate(0 0)"/><g id="Group_5" data-name="Group 5"><path id="Path_15" data-name="Path 15" class="cls-5" d="M14.46,76.16,4.4,81.05a.7.7,0,0,0-.35.85l.64,7.77a.69.69,0,0,0,.9.4A.69.69,0,0,0,6,89.22,61.75,61.75,0,0,0,5.56,82l9.51-4.62a.68.68,0,0,0,.38-.5.65.65,0,0,0-.06-.43A.71.71,0,0,0,14.46,76.16Z" transform="translate(0 0)"/></g><path id="Path_16" data-name="Path 16" class="cls-10" d="M22.43,43.42l3.26-24.21S19.09,7.55,16.18,2.83A3.86,3.86,0,0,0,11.07,1l-.37.2A14.62,14.62,0,0,0,8.15,2.81C6.68,4,6.86,5.92,7.18,10.92c.16,2.64,1.9,24.47,3.5,44.59Z" transform="translate(0 0)"/><path id="Path_17" data-name="Path 17" class="cls-5" d="M67.27,26.28s-5.91-5.88-6.9-6.76-1.25-.11-1.67.39-2.5,3.61-2.5,3.61Z" transform="translate(0 0)"/><g id="Group_7" data-name="Group 7"><g id="Group_6" data-name="Group 6"><path id="Path_18" data-name="Path 18" class="cls-7" d="M13.35,1.81a.69.69,0,0,0,.36.91l20.8,9.11a.69.69,0,0,0,.87-.46.68.68,0,0,0-.32-.81L14.26,1.45A.69.69,0,0,0,13.35,1.81Z" transform="translate(0 0)"/></g><path id="Path_19" data-name="Path 19" class="cls-11" d="M34.86,11.24,14.06,2.13a.69.69,0,0,0-.74.12.66.66,0,0,0,.39.47l20.8,9.11a.68.68,0,0,0,.73-.12A.67.67,0,0,0,34.86,11.24Z" transform="translate(0 0)"/><path id="Path_20" data-name="Path 20" class="cls-9" d="M58.6,20,35.54,10.27a.75.75,0,0,0-.95.35l-.45.93a.65.65,0,0,0,.29.88l0,0,22.64,9.72C57.66,21.36,58.31,20.42,58.6,20Z" transform="translate(0 0)"/></g><path id="Path_21" data-name="Path 21" class="cls-12" d="M15.9,2.64A2.24,2.24,0,1,1,14.11,0,2.25,2.25,0,0,1,15.9,2.64Z" transform="translate(0 0)"/><path id="Path_22" data-name="Path 22" class="cls-13" d="M15.08,2.49A1.4,1.4,0,1,1,14,.86a1.41,1.41,0,0,1,1.13,1.63Z" transform="translate(0 0)"/><path id="Path_23" data-name="Path 23" class="cls-12" d="M7.4,23.44a1.47,1.47,0,1,1-1.17-1.72h0a1.46,1.46,0,0,1,1.18,1.7Z" transform="translate(0 0)"/><path id="Path_24" data-name="Path 24" class="cls-10" d="M25.28,17.85l-1.66-2.21a7.08,7.08,0,0,0-3.42-.15,2.85,2.85,0,0,0-1.77,1.78c-.7,2,.42,3.67,4,5.17.6.24,1.57.65,2.8,1.18Z" transform="translate(0 0)"/><path id="Path_25" data-name="Path 25" class="cls-6" d="M99.09,56.75s-21.73-22.25-27-27-9.26-5.82-16.7-7.48S29,15.44,24.85,14.52c-2.34-.52-3.68-.76-4.7-.42a2.85,2.85,0,0,0-1.76,1.78c-.7,2,.41,3.67,4,5.17C27,22.94,53.37,34.28,55.49,35.27s2.36.93,5.57,3.82S92.89,66.45,92.89,66.45Z" transform="translate(0 0)"/><path id="Path_26" data-name="Path 26" class="cls-12" d="M22.71,17a1.47,1.47,0,1,1-1.39-1.54A1.47,1.47,0,0,1,22.71,17Z" transform="translate(0 0)"/><g id="Group_8" data-name="Group 8"><path id="Path_27" data-name="Path 27" class="cls-7" d="M63.83,36a1.24,1.24,0,0,0-.54.92l7.88,15.49a1.08,1.08,0,0,0,1.17.31.69.69,0,0,0,.3-.93L64.77,36.33A.71.71,0,0,0,63.83,36Z" transform="translate(0 0)"/></g><path id="Path_28" data-name="Path 28" class="cls-8" d="M64.22,36.83a.68.68,0,0,0-.78-.35,1.59,1.59,0,0,0-.14.47l7.87,15.49a1.22,1.22,0,0,0,1,.37.67.67,0,0,0,0-.5Z" transform="translate(0 0)"/><path id="Path_29" data-name="Path 29" class="cls-9" d="M90,80,73.53,51l-3.44,1.55L88.84,88.32Z" transform="translate(0 0)"/><path id="Path_30" data-name="Path 30" class="cls-12" d="M66.64,36.63a2.69,2.69,0,1,1-2.55-2.82A2.69,2.69,0,0,1,66.64,36.63Z" transform="translate(0 0)"/><path id="Path_31" data-name="Path 31" class="cls-13" d="M65.69,36.58A1.74,1.74,0,1,1,64,34.76a1.75,1.75,0,0,1,1.65,1.82Z" transform="translate(0 0)"/><path id="Path_32" data-name="Path 32" class="cls-14" d="M17,91a2.26,2.26,0,1,1-4.44-.82A2.26,2.26,0,0,1,17,91Z" transform="translate(0 0)"/><path id="Path_33" data-name="Path 33" class="cls-15" d="M16.19,90.82A1.43,1.43,0,1,1,15,89.15h0A1.44,1.44,0,0,1,16.19,90.82Z" transform="translate(0 0)"/><path id="Path_34" data-name="Path 34" class="cls-14" d="M7.52,90.67a2,2,0,1,1-1.6-2.32A2,2,0,0,1,7.52,90.67Z" transform="translate(0 0)"/><path id="Path_35" data-name="Path 35" class="cls-15" d="M6.85,90.55a1.32,1.32,0,0,1-1.53,1.06A1.32,1.32,0,0,1,5.8,89a1.31,1.31,0,0,1,1,1.54Z" transform="translate(0 0)"/><path id="Path_36" data-name="Path 36" class="cls-12" d="M6,81.72A1.39,1.39,0,1,1,4.9,80.1h0A1.39,1.39,0,0,1,6,81.72Z" transform="translate(0 0)"/><path id="Path_37" data-name="Path 37" class="cls-13" d="M5.53,81.63a.9.9,0,1,1-.72-1h0A.9.9,0,0,1,5.53,81.63Z" transform="translate(0 0)"/><path id="Path_38" data-name="Path 38" class="cls-12" d="M16.55,77a1.52,1.52,0,0,1-3-.55,1.53,1.53,0,0,1,1.77-1.21A1.51,1.51,0,0,1,16.55,77Z" transform="translate(0 0)"/><path id="Path_39" data-name="Path 39" class="cls-13" d="M15.93,76.89a.89.89,0,1,1-.71-1,.88.88,0,0,1,.71,1Z" transform="translate(0 0)"/><path id="Path_40" data-name="Path 40" class="cls-10" d="M87.4,61.75l5.49,4.7,6.19-9.7s-5-5.14-10.84-11Z" transform="translate(0 0)"/><rect id="Rectangle_4" data-name="Rectangle 4" class="cls-16" x="87.44" y="97.84" width="33" height="4.08"/><path id="Path_41" data-name="Path 41" class="cls-5" d="M87.7,98H86.39C84.66,98,83,96.72,83,94.2V77.87c0-5.79,2.67-14.12,3.6-17s1.5-4.34,5.44-4.34h17.84c3.86,0,4.52,2.17,4.52,5.17V98.23Z" transform="translate(0 0)"/><path id="Path_42" data-name="Path 42" class="cls-17" d="M83,93.15v1C83,96.71,84.66,98,86.39,98h1.3l26.7.21V93.15Z" transform="translate(0 0)"/><path id="Path_43" data-name="Path 43" class="cls-18" d="M150.74,93.15H114.4v5.08h36.34a1.85,1.85,0,0,0,2.07-1.6c0-.06,0-.12,0-.18v-3.3Z" transform="translate(0 0)"/><path id="Path_44" data-name="Path 44" class="cls-19" d="M110,58.71H91.94c-1.57,0-2.76.3-3.72,3.43-.7,2.23-3.44,10.51-3.44,15V88.23c0,1.39.7,1.39,1.47,1.39L112,89.56V61.49C112,60,111.78,58.71,110,58.71Z" transform="translate(0 0)"/><g id="Group_11" data-name="Group 11"><g id="Group_9" data-name="Group 9"><path id="Path_45" data-name="Path 45" class="cls-4" d="M140.63,101.08H66.54a10.84,10.84,0,0,0,0,21.68h74.09a10.84,10.84,0,0,0,0-21.68Zm0,19.94H66.54a9.1,9.1,0,0,1,0-18.2h74.09a9.1,9.1,0,1,1,0,18.2Z" transform="translate(0 0)"/><path id="Path_46" data-name="Path 46" class="cls-4" d="M90.62,101.08H92v-1H90.62Zm-4.86,0h1.39v-1H85.76Zm9.72,0h1.39v-1H95.48Zm4.87,0h1.39v-1h-1.39Zm-39.72.54.53.9a10.94,10.94,0,0,1,1.38-.66l-.39-1A12.54,12.54,0,0,0,60.63,101.62Zm5.62-1.57,0,1H67.7v-1H66.25Zm39,1h1.39v-1h-1.39Zm-34,0h1.39v-1H71.17Zm4.86,0h1.39v-1H76Zm4.87,0h1.38v-1H80.89Zm58.82-1v1h1.39v-1Zm5.77,1-.43,1a10.37,10.37,0,0,1,1.35.73l.56-.89a11.78,11.78,0,0,0-1.49-.79Zm-11.1,0h1.39v-1h-1.4Zm-77,3.22a11.7,11.7,0,0,0-1,1.36l.89.56a10.09,10.09,0,0,1,.89-1.25Zm92.63.39-.83.64a10.15,10.15,0,0,1,.85,1.28l.91-.52a12.94,12.94,0,0,0-.93-1.39Zm2.46,7a11.78,11.78,0,0,0-.15-1.67l-1,.16a11.3,11.3,0,0,1,.14,1.53Zm-42.45-10.64h1.39v-1h-1.39Zm4.87,0h1.39v-1h-1.4Zm4.86,0h1.38v-1h-1.39Zm4.86,0h1.39v-1h-1.39Zm4.86,0h1.4v-1h-1.4ZM78.38,123.8h1.39v-1H78.38Zm48.63,0h1.38v-1H127Zm-19.45,0H109v-1h-1.39Zm4.86,0h1.39v-1h-1.4Zm4.86,0h1.39v-1h-1.39Zm14.59,0h1.39v-1h-1.39Zm-9.73,0h1.39v-1h-1.39Zm28.1-6.88.93.49a12.49,12.49,0,0,0,.67-1.55l-1-.35a10.47,10.47,0,0,1-.61,1.42Zm-3.54,4,.58.86a12.19,12.19,0,0,0,1.33-1l-.7-.78a11.08,11.08,0,0,1-1.21,1Zm-5,1.8.1,1a11.52,11.52,0,0,0,1.66-.29l-.25-1a11,11,0,0,1-1.52.28Zm-5,1.1h1.39v-1h-1.39ZM93,123.8h1.39v-1H93Zm-24.31,0h1.39v-1H68.66Zm-5.4-.47a11.11,11.11,0,0,0,1.64.35l.15-1a10.81,10.81,0,0,1-1.5-.32Zm-5-3a13,13,0,0,0,1.26,1.09l.63-.84a10,10,0,0,1-1.17-1Zm15.3,3.42h1.39v-1h-1.4Zm-18.34-8.41a12.58,12.58,0,0,0,.61,1.58l1-.45a10.34,10.34,0,0,1-.56-1.43Zm.74-5.61-1-.21a11.73,11.73,0,0,0-.21,1.67l1.05.06a9.7,9.7,0,0,1,.18-1.52Zm41.91,14h1.39v-1H97.83Zm4.86,0h1.39v-1h-1.39Zm-14.59,0h1.39v-1H88.1Zm-4.86,0h1.39v-1H83.24Z" transform="translate(0 0)"/></g><path id="Path_47" data-name="Path 47" class="cls-16" d="M66.54,102.82a9.1,9.1,0,0,0,0,18.2h74.09a9.1,9.1,0,1,0,0-18.2H66.54Z" transform="translate(0 0)"/><g id="Group_10" data-name="Group 10"><path id="Path_48" data-name="Path 48" class="cls-20" d="M88.69,117.87a2.9,2.9,0,1,1-2.9-2.9h0A2.9,2.9,0,0,1,88.69,117.87Z" transform="translate(0 0)"/><path id="Path_49" data-name="Path 49" class="cls-20" d="M95.81,117.87a2.9,2.9,0,1,1-2.9-2.9,2.89,2.89,0,0,1,2.9,2.9Z" transform="translate(0 0)"/><path id="Path_50" data-name="Path 50" class="cls-20" d="M102.93,117.87A2.89,2.89,0,1,1,100,115,2.89,2.89,0,0,1,102.93,117.87Z" transform="translate(0 0)"/><path id="Path_51" data-name="Path 51" class="cls-20" d="M110.05,117.87a2.9,2.9,0,1,1-2.9-2.9A2.89,2.89,0,0,1,110.05,117.87Z" transform="translate(0 0)"/><path id="Path_52" data-name="Path 52" class="cls-20" d="M117.17,117.87a2.9,2.9,0,1,1-2.9-2.9,2.89,2.89,0,0,1,2.9,2.9Z" transform="translate(0 0)"/><path id="Path_53" data-name="Path 53" class="cls-20" d="M124.29,117.87a2.9,2.9,0,1,1-2.9-2.9,2.9,2.9,0,0,1,2.9,2.9Z" transform="translate(0 0)"/></g><path id="Path_54" data-name="Path 54" class="cls-21" d="M121.4,115a2.91,2.91,0,0,0-2.9,2.9h0a2.83,2.83,0,0,0,.14.83h5.52a2.86,2.86,0,0,0-1.85-3.59,2.82,2.82,0,0,0-.91-.13Zm-35.6,0a2.9,2.9,0,0,0-2.9,2.9,2.83,2.83,0,0,0,.13.83h5.52a2.83,2.83,0,0,0,.14-.83A2.91,2.91,0,0,0,85.8,115Zm7.12,0a2.87,2.87,0,0,0-2.9,2.82,2.79,2.79,0,0,0,.14.91h5.52A2.87,2.87,0,0,0,92.92,115Zm21.35,0a2.87,2.87,0,0,0-2.89,2.84,3,3,0,0,0,.14.89H117a2.63,2.63,0,0,0,.14-.83,2.9,2.9,0,0,0-2.89-2.9h0ZM100,115a2.87,2.87,0,0,0-2.9,2.83,3,3,0,0,0,.14.9h5.52a2.86,2.86,0,0,0-1.85-3.59A3.14,3.14,0,0,0,100,115Zm7.12,0a2.92,2.92,0,0,0-2.9,2.9,2.83,2.83,0,0,0,.14.83h5.52a2.83,2.83,0,0,0,.13-.83,2.91,2.91,0,0,0-2.89-2.9Z" transform="translate(0 0)"/><path id="Path_55" data-name="Path 55" class="cls-22" d="M69.33,106c-3.71,0-6.72,2.67-6.72,6s3,6,6.72,6h68.51c3.71,0,6.73-2.68,6.73-6s-3-6-6.73-6Z" transform="translate(0 0)"/><path id="Path_56" data-name="Path 56" class="cls-20" d="M73.92,111.92a7.24,7.24,0,1,1-7.23-7.23h0a7.22,7.22,0,0,1,7.23,7.23Z" transform="translate(0 0)"/><path id="Path_57" data-name="Path 57" class="cls-2" d="M72,111.92a5.29,5.29,0,1,1-5.28-5.28h0A5.27,5.27,0,0,1,72,111.92Z" transform="translate(0 0)"/><path id="Path_58" data-name="Path 58" class="cls-23" d="M137.84,106H105.32l-7.59,11.91h40.11c3.71,0,6.73-2.68,6.73-6S141.55,106,137.84,106Z" transform="translate(0 0)"/><path id="Path_59" data-name="Path 59" class="cls-23" d="M69.42,107.4l-5.68,8.9a5.28,5.28,0,1,0,6-8.67A4,4,0,0,0,69.42,107.4Z" transform="translate(0 0)"/><path id="Path_60" data-name="Path 60" class="cls-20" d="M147.72,111.92a7.24,7.24,0,1,1-7.23-7.23h0a7.22,7.22,0,0,1,7.23,7.23Z" transform="translate(0 0)"/><path id="Path_61" data-name="Path 61" class="cls-2" d="M145.78,111.92a5.29,5.29,0,1,1-5.29-5.28h0A5.28,5.28,0,0,1,145.78,111.92Z" transform="translate(0 0)"/><path id="Path_62" data-name="Path 62" class="cls-23" d="M143,107.29l-5.66,8.89a5.28,5.28,0,0,0,6.26-8.51A4.67,4.67,0,0,0,143,107.29Z" transform="translate(0 0)"/></g><path id="Path_63" data-name="Path 63" class="cls-24" d="M112,69.26c-.81-.22-2.24.88-2.87,2.66-1,2.7-2.27,8.49-2.27,8.49H99.29c-2,0-2.53.58-2.53,1.08s.08,1.53.78,1.53h2.54v.49a5,5,0,0,0-3.17,3.91H89.14L92.87,77l-.6-1.7,1.9-1.94,2.77,1.44.42-.27-4.94-4.9-.42.58,1.11,2.12-1.94,2L89,72.82l-4.23,3.63c0,.22,0,.45,0,.66V88.23c0,1.39.7,1.39,1.48,1.39h4.58l0,0h5.86v0l13.86,0,.42-.94-.23-7.73s.74-3.41,1.31-6.45Z" transform="translate(0 0)"/><g id="Group_13" data-name="Group 13"><path id="Path_64" data-name="Path 64" class="cls-4" d="M122,72.75h16.76l2.43,6.51L119.39,78Z" transform="translate(0 0)"/><path id="Path_65" data-name="Path 65" class="cls-5" d="M152.82,93.15V84.82c0-2-1.22-5.16-5.9-5.9S122,76.14,116.41,75.68s-7.7,2.37-7.7,6.71V93.16Z" transform="translate(0 0)"/><path id="Path_66" data-name="Path 66" class="cls-6" d="M118.78,75.88l-2.37-.21c-5.56-.46-7.7,2.37-7.7,6.72V93.15h10.07Z" transform="translate(0 0)"/><g id="Group_12" data-name="Group 12"><path id="Path_67" data-name="Path 67" class="cls-6" d="M134.35,83.91H121.14a1.78,1.78,0,0,1,1.79-1.78h9.63a1.78,1.78,0,0,1,1.79,1.78Z" transform="translate(0 0)"/><path id="Path_68" data-name="Path 68" class="cls-6" d="M134.35,87H121.14a1.79,1.79,0,0,1,1.79-1.79h9.63A1.79,1.79,0,0,1,134.35,87Z" transform="translate(0 0)"/><path id="Path_69" data-name="Path 69" class="cls-6" d="M134.35,90.17H121.14a1.79,1.79,0,0,1,1.79-1.79h9.63a1.79,1.79,0,0,1,1.79,1.79Z" transform="translate(0 0)"/></g><rect id="Rectangle_5" data-name="Rectangle 5" class="cls-25" x="137.8" y="82.91" width="11.29" height="6.69" rx="1.2"/><path id="Path_70" data-name="Path 70" class="cls-25" d="M147.7,82.91h-1.93l-4.26,6.68h6.19a1.39,1.39,0,0,0,1.39-1.39h0V84.3a1.39,1.39,0,0,0-1.39-1.39Z" transform="translate(0 0)"/></g><path id="Path_71" data-name="Path 71" class="cls-24" d="M99.12,58.71,85.54,89.57a3.4,3.4,0,0,0,.71.05H91.6l13.6-30.91Zm-4.17,0L84.78,81.84v5.4L97.33,58.71Z" transform="translate(0 0)"/><path id="Path_72" data-name="Path 72" class="cls-26" d="M49.54,20.82l-7.74,8.5,4.53,1.95,8.38-9.2C53.28,21.74,51.5,21.31,49.54,20.82Zm-4.28-1.08L38,27.7l1.49.64,7.44-8.17Z" transform="translate(0 0)"/></g></g></svg>