<svg id="Layer_1" data-name="Layer 1" xmlns="http://www.w3.org/2000/svg" xmlns:xlink="http://www.w3.org/1999/xlink" viewBox="0 0 160 78.44"><defs><style>.cls-1{fill:#b2b2b2;}.cls-2{fill:#ff4000;}.cls-17,.cls-3{fill:#e7a905;}.cls-23,.cls-4{fill:#fecd31;}.cls-5{fill:url(#linear-gradient);}.cls-21,.cls-6{fill:#2e2e2e;}.cls-20,.cls-7{fill:#3a3b3b;}.cls-22,.cls-8{fill:#b3b3b4;}.cls-9{fill:#6b6b6b;}.cls-10{fill:#4d4d4d;}.cls-11,.cls-12{fill:#d1d1d1;}.cls-12,.cls-17{opacity:0.3;}.cls-12,.cls-16,.cls-17,.cls-20,.cls-21,.cls-22,.cls-23{isolation:isolate;}.cls-13{fill:#4b5150;}.cls-14,.cls-16{fill:#4a7085;}.cls-15{fill:#d0eef9;}.cls-16{opacity:0.5;}.cls-18{fill:#d9871f;}.cls-19,.cls-21,.cls-22{opacity:0.4;}.cls-20{opacity:0.7;}.cls-23{opacity:0.8;}</style><linearGradient id="linear-gradient" x1="-823.13" y1="556.45" x2="-823.64" y2="557.25" gradientTransform="matrix(15.94, 0, 0, -21.98, 13277.69, 12272.1)" gradientUnits="userSpaceOnUse"><stop offset="0" stop-color="#fecd31"/><stop offset="1" stop-color="#bd6e1a"/></linearGradient></defs><g id="Group_5940" data-name="Group 5940"><path id="Path_1" data-name="Path 1" class="cls-1" d="M158.21,77.08c0,.75-35.32,1.36-78.89,1.36S.43,77.83.43,77.08s35.32-1.36,78.89-1.36S158.21,76.33,158.21,77.08Z" transform="translate(0 0)"/><g id="Group_34" data-name="Group 34"><path id="Path_2" data-name="Path 2" class="cls-2" d="M156.5,59.14a1.53,1.53,0,0,1-1.63,1.4h0a1.53,1.53,0,0,1-1.63-1.4V57a1.53,1.53,0,0,1,1.63-1.4h0A1.53,1.53,0,0,1,156.5,57Z" transform="translate(0 0)"/><path id="Path_3" data-name="Path 3" class="cls-3" d="M154.58,66.39H153V55h1.64Z" transform="translate(0 0)"/><path id="Path_4" data-name="Path 4" class="cls-4" d="M151.61,20.8s7.61,16,8.12,17.83.5,4-1.68,4.86-4.27-.67-5.44-2.68S142.52,22.6,142.52,22.6Z" transform="translate(0 0)"/><path id="Path_5" data-name="Path 5" class="cls-5" d="M143.55,23.08c1.8,3.28,8.59,15.7,9.64,17.4,1.6,2.6,3.06,3.57,5,2.82,1-.39,1.83-1.52.89-4.49-.45-1.4-5.61-12.52-7.86-17.25Z" transform="translate(0 0)"/><path id="Path_6" data-name="Path 6" class="cls-3" d="M150.43,7.31,151.86,20a4.31,4.31,0,0,1-3.67,4.85h0c-4.36.94-5.36-2.63-5.36-2.63L142,12.09Z" transform="translate(0 0)"/><path id="Path_7" data-name="Path 7" class="cls-6" d="M16.46,65.18H153V55.07H47.77v-5.8H36.72S16.46,54,16.46,65.18Z" transform="translate(0 0)"/><g id="Group_1" data-name="Group 1"><path id="Path_8" data-name="Path 8" class="cls-7" d="M46.22,8.15c-3.22,0-4.4,2.83-4.4,4.73v1.55h2V12.88c0-.11,0-2.72,2.39-2.72h1.47v-2Z" transform="translate(0 0)"/></g><g id="Group_2" data-name="Group 2"><path id="Path_9" data-name="Path 9" class="cls-7" d="M43.78,47.06c0,3.23-2.83,4.4-4.73,4.4H37.5v-2h1.55c.11,0,2.72,0,2.72-2.39V45.6h2Z" transform="translate(0 0)"/></g><path id="Rectangle_2" data-name="Rectangle 2" class="cls-6" d="M51.64,56.52h24a2,2,0,0,1,2,2v7.56a2,2,0,0,1-2,2h-24a2,2,0,0,1-2-2h0V58.49a2,2,0,0,1,2-2Z" transform="translate(0 0)"/><path id="Path_10" data-name="Path 10" class="cls-8" d="M51.79,68h1.34V56.52H51.79Zm10.76,0h1.34V56.52H62.55Zm10.76-11.5V68h1.34V56.52Z" transform="translate(0 0)"/><path id="Path_11" data-name="Path 11" class="cls-9" d="M70.62,58.5a1.19,1.19,0,1,1-1.35-1h.17A1.11,1.11,0,0,1,70.62,58.5Z" transform="translate(0 0)"/><path id="Path_12" data-name="Path 12" class="cls-7" d="M61,41.46H56.23L51.33,51.6H65.91Z" transform="translate(0 0)"/><rect id="Rectangle_3" data-name="Rectangle 3" class="cls-1" x="50.51" y="36.62" width="0.44" height="3.33"/><rect id="Rectangle_4" data-name="Rectangle 4" class="cls-10" x="50.89" y="36.97" width="3.3" height="2.6"/><rect id="Rectangle_5" data-name="Rectangle 5" class="cls-7" x="50.89" y="38.1" width="3.3" height="1.47"/><g id="Group_3" data-name="Group 3"><rect id="Rectangle_6" data-name="Rectangle 6" class="cls-1" x="53.69" y="35.79" width="2.65" height="4.93"/><rect id="Rectangle_7" data-name="Rectangle 7" class="cls-1" x="56.85" y="35.79" width="3.21" height="4.93"/><path id="Path_13" data-name="Path 13" class="cls-1" d="M60.43,40.72h2.79L61.9,35.78H60.43Z" transform="translate(0 0)"/></g><g id="Group_5" data-name="Group 5"><path id="Path_14" data-name="Path 14" class="cls-7" d="M44.25,66.43A10.89,10.89,0,1,1,33.37,55.55,10.88,10.88,0,0,1,44.25,66.43Z" transform="translate(0 0)"/><path id="Path_15" data-name="Path 15" class="cls-8" d="M38.83,66.43A5.46,5.46,0,1,1,33.37,61a5.47,5.47,0,0,1,5.46,5.45Z" transform="translate(0 0)"/><g id="Group_4" data-name="Group 4"><path id="Path_16" data-name="Path 16" class="cls-9" d="M33,61.58l-.21,0a.32.32,0,0,0-.27.36h0a.32.32,0,0,0,.36.26h0l.15,0h0a.31.31,0,0,0,.29-.35.32.32,0,0,0-.35-.29Zm-2.9,1.35a.3.3,0,0,0-.23.1l-.15.16a.32.32,0,0,0,.24.54.35.35,0,0,0,.24-.1l0,0,0,0h0l.07-.08a.31.31,0,0,0,0-.44.28.28,0,0,0-.23-.09ZM28.8,66.26h0a.34.34,0,0,0-.31.33h0a1.64,1.64,0,0,0,0,.23.3.3,0,0,0,.31.3h0a.33.33,0,0,0,.3-.32,2.18,2.18,0,0,1,0-.25.32.32,0,0,0-.32-.28Zm1.5,3.24a.35.35,0,0,0-.24.1.33.33,0,0,0,0,.46h0l.17.15a.32.32,0,0,0,.43-.48l-.18-.16a.37.37,0,0,0-.2-.07Zm3.58,1.16h0l-.26,0a.32.32,0,0,0-.27.34.35.35,0,0,0,.33.3h0l.23,0a.32.32,0,0,0,.3-.34.32.32,0,0,0-.34-.3ZM37,68.9a.33.33,0,0,0-.25.12l-.09.12,0,0a.33.33,0,0,0,0,.45h0a.32.32,0,0,0,.21.08.3.3,0,0,0,.24-.12,1.15,1.15,0,0,0,.14-.17.32.32,0,0,0,0-.44h0a.32.32,0,0,0-.2-.08Zm.9-3.45h0a.31.31,0,0,0-.27.35h0l0,.19a.32.32,0,0,0,.32.29h0a.32.32,0,0,0,.29-.35c0-.08,0-.16,0-.22A.31.31,0,0,0,37.9,65.45Zm-1.85-3.06a.32.32,0,0,0-.33.32.3.3,0,0,0,.14.26l.15.12a.31.31,0,0,0,.2.07.32.32,0,0,0,.32-.32.3.3,0,0,0-.12-.25,1.41,1.41,0,0,0-.18-.14.3.3,0,0,0-.18-.06Z" transform="translate(0 0)"/></g><path id="Path_17" data-name="Path 17" class="cls-9" d="M36,66.43a2.61,2.61,0,1,1-2.61-2.61A2.6,2.6,0,0,1,36,66.43Z" transform="translate(0 0)"/><path id="Path_18" data-name="Path 18" class="cls-8" d="M34.4,66.43a1,1,0,1,1-1-1,1,1,0,0,1,1,1Z" transform="translate(0 0)"/></g><g id="Group_7" data-name="Group 7"><path id="Path_19" data-name="Path 19" class="cls-7" d="M123.47,66.43a10.89,10.89,0,1,1-10.89-10.88,10.88,10.88,0,0,1,10.89,10.88Z" transform="translate(0 0)"/><path id="Path_20" data-name="Path 20" class="cls-8" d="M118,66.43A5.46,5.46,0,1,1,112.58,61,5.45,5.45,0,0,1,118,66.43Z" transform="translate(0 0)"/><g id="Group_6" data-name="Group 6"><path id="Path_21" data-name="Path 21" class="cls-9" d="M112.2,61.58l-.22,0a.32.32,0,0,0-.26.37.34.34,0,0,0,.35.27h0l.15,0h0a.34.34,0,0,0,.28-.37.34.34,0,0,0-.35-.28Zm-2.9,1.35a.29.29,0,0,0-.23.1l-.16.16a.33.33,0,0,0,.48.44h0l0,0,0,0h0l.07-.08a.33.33,0,0,0,0-.45.36.36,0,0,0-.23-.09ZM108,66.26h0a.33.33,0,0,0-.31.33h0c0,.08,0,.16,0,.23a.32.32,0,0,0,.32.3h0a.35.35,0,0,0,.3-.32c0-.09,0-.17,0-.25a.32.32,0,0,0-.32-.28Zm1.5,3.24a.35.35,0,0,0-.24.1.33.33,0,0,0,0,.46l.17.15a.32.32,0,0,0,.43-.48l-.18-.16a.37.37,0,0,0-.2-.07Zm3.59,1.16h0l-.26,0a.3.3,0,0,0-.26.34.33.33,0,0,0,.32.3h0l.22,0a.32.32,0,0,0,.3-.34.32.32,0,0,0-.34-.3Zm3.11-1.76A.33.33,0,0,0,116,69l-.09.12,0,0a.32.32,0,0,0,0,.45h0a.32.32,0,0,0,.21.08.3.3,0,0,0,.24-.12,1.15,1.15,0,0,0,.14-.17.32.32,0,0,0,0-.44h0a.32.32,0,0,0-.2-.08Zm.9-3.45h0a.31.31,0,0,0-.28.35h0a1.11,1.11,0,0,0,0,.19.32.32,0,0,0,.32.29h0a.32.32,0,0,0,.29-.35c0-.08,0-.16,0-.22a.31.31,0,0,0-.32-.27Zm-1.85-3.06a.32.32,0,0,0-.32.33.29.29,0,0,0,.13.25l.15.12a.32.32,0,0,0,.45-.05.32.32,0,0,0,0-.45h0a1.41,1.41,0,0,0-.18-.14.3.3,0,0,0-.18-.06Z" transform="translate(0 0)"/></g><path id="Path_22" data-name="Path 22" class="cls-9" d="M115.2,66.43a2.62,2.62,0,1,1-2.62-2.61,2.6,2.6,0,0,1,2.62,2.61Z" transform="translate(0 0)"/><path id="Path_23" data-name="Path 23" class="cls-8" d="M113.61,66.43a1,1,0,0,1-1,1,1,1,0,0,1-1-1,1,1,0,1,1,2,0Z" transform="translate(0 0)"/></g><g id="Group_9" data-name="Group 9"><path id="Path_24" data-name="Path 24" class="cls-7" d="M146.75,66.43a10.89,10.89,0,1,1-10.89-10.88A10.89,10.89,0,0,1,146.75,66.43Z" transform="translate(0 0)"/><path id="Path_25" data-name="Path 25" class="cls-8" d="M141.32,66.43A5.46,5.46,0,1,1,135.86,61a5.46,5.46,0,0,1,5.46,5.45Z" transform="translate(0 0)"/><g id="Group_8" data-name="Group 8"><path id="Path_26" data-name="Path 26" class="cls-9" d="M135.47,61.58l-.21,0A.32.32,0,0,0,135,62h0a.32.32,0,0,0,.36.26h0l.15,0h0a.31.31,0,0,0,.27-.36.33.33,0,0,0-.35-.28Zm-2.9,1.35a.3.3,0,0,0-.23.1l-.15.16a.33.33,0,0,0,.48.44s0,0,0,0l0,0h0l.08-.08a.33.33,0,0,0,0-.45.36.36,0,0,0-.22-.09Zm-1.28,3.33h0a.32.32,0,0,0-.31.33h0c0,.08,0,.16,0,.23a.32.32,0,0,0,.32.3h0a.33.33,0,0,0,.3-.32c0-.09,0-.17,0-.25a.32.32,0,0,0-.32-.28Zm1.5,3.24a.35.35,0,0,0-.24.1.33.33,0,0,0,0,.46h0l.17.15a.32.32,0,0,0,.43-.48l-.18-.16a.37.37,0,0,0-.2-.07Zm3.59,1.16h0l-.26,0a.32.32,0,0,0-.27.34.35.35,0,0,0,.33.3h0l.23,0a.32.32,0,0,0,.3-.34.32.32,0,0,0-.34-.3Zm3.11-1.76a.33.33,0,0,0-.25.12l-.09.12,0,0a.32.32,0,0,0,0,.45.32.32,0,0,0,.21.08.3.3,0,0,0,.24-.12,1.15,1.15,0,0,0,.14-.17.32.32,0,0,0,0-.44h0a.32.32,0,0,0-.2-.08Zm.9-3.45h0a.31.31,0,0,0-.27.35h0l0,.19a.32.32,0,0,0,.32.29h0a.32.32,0,0,0,.29-.35h0c0-.08,0-.16,0-.22A.31.31,0,0,0,140.39,65.45Zm-1.85-3.06a.33.33,0,0,0-.33.32.3.3,0,0,0,.14.26l.15.12a.31.31,0,0,0,.2.07.32.32,0,0,0,.32-.32.3.3,0,0,0-.12-.25,1.41,1.41,0,0,0-.18-.14.3.3,0,0,0-.18-.06Z" transform="translate(0 0)"/></g><path id="Path_27" data-name="Path 27" class="cls-9" d="M138.47,66.43a2.61,2.61,0,1,1-2.61-2.61,2.6,2.6,0,0,1,2.61,2.61Z" transform="translate(0 0)"/><path id="Path_28" data-name="Path 28" class="cls-8" d="M136.89,66.43a1,1,0,1,1-2.06,0,1,1,0,0,1,1-1,1,1,0,0,1,1,1Z" transform="translate(0 0)"/></g><path id="Rectangle_8" data-name="Rectangle 8" class="cls-11" d="M40.81,13.6h4.13a.66.66,0,0,1,.66.65h0v32.1a.67.67,0,0,1-.66.66H40.81a.67.67,0,0,1-.66-.66h0V14.25A.66.66,0,0,1,40.81,13.6Z" transform="translate(0 0)"/><path id="Path_29" data-name="Path 29" class="cls-12" d="M44.92,13.6H43.78V47h1.14a.67.67,0,0,0,.67-.67h0V14.26A.66.66,0,0,0,44.92,13.6Z" transform="translate(0 0)"/><rect id="Rectangle_9" data-name="Rectangle 9" class="cls-13" x="38.14" y="20.08" width="8.12" height="1.59"/><rect id="Rectangle_10" data-name="Rectangle 10" class="cls-13" x="38.14" y="37.96" width="8.12" height="1.59"/><path id="Path_30" data-name="Path 30" class="cls-4" d="M21.06,66.43A12.31,12.31,0,0,1,38.11,55.07l.12-.11V16.86c0-2.68-1.34-3.43-3.23-3.43H15c-4,0-5.42,3-6.37,5.3s-5,11.53-5.61,13A7.22,7.22,0,0,0,2,36V66.9c0,2.57.66,3.91,3.61,3.91h15.5S21.06,68,21.06,66.43Z" transform="translate(0 0)"/><path id="Path_31" data-name="Path 31" class="cls-7" d="M4.86,35.37a6.27,6.27,0,0,1,.82-3.67c.5-1.29,4-9.17,4.81-11.17S12.5,16,16,16H28.57c1.51,0,1.68.44,1.68,1.8s0,17.65,0,17.65Z" transform="translate(0 0)"/><path id="Path_32" data-name="Path 32" class="cls-14" d="M16,16.65c-2.92,0-4,2-4.84,4.13L6.31,32,6,32.73a4.19,4.19,0,0,0-.42,2l24,0c0-1.24,0-17,0-17,0-1.13,0-1.13-1-1.13Z" transform="translate(0 0)"/><path id="Path_33" data-name="Path 33" class="cls-15" d="M3.58,55a2,2,0,0,1-1.74,2.18h0A2,2,0,0,1,.11,55V51.61a2,2,0,0,1,1.73-2.18h0a2,2,0,0,1,1.74,2.18Z" transform="translate(0 0)"/><path id="Path_34" data-name="Path 34" class="cls-3" d="M29.44,37.19a.62.62,0,0,1-.61.6h-4.6a.6.6,0,0,1-.61-.6h0a.61.61,0,0,1,.61-.61h4.6a.61.61,0,0,1,.61.61Z" transform="translate(0 0)"/><g id="Group_10" data-name="Group 10"><path id="Path_35" data-name="Path 35" class="cls-8" d="M6.24,15.85a1.75,1.75,0,0,0-1.89,1.57c0,.11,0,.21,0,.32v5.9a1.47,1.47,0,0,0,1.3,1.64H6a.34.34,0,1,0,0-.67c-.69,0-1-.28-1-1v-5.9a1.09,1.09,0,0,1,.9-1.22h5.37a.33.33,0,1,0,0-.66H6.24Z" transform="translate(0 0)"/></g><path id="Path_36" data-name="Path 36" class="cls-3" d="M2,59.23c-1.57,0-2,.84-2,1.86v5.82c0,2.57.66,3.91,3.61,3.91H21.12s-.06-2.84-.06-4.38a12.24,12.24,0,0,1,2.34-7.2Z" transform="translate(0 0)"/><g id="Group_11" data-name="Group 11"><path id="Path_37" data-name="Path 37" class="cls-3" d="M4.77,35.37V56.24a.08.08,0,0,0,0,.06.09.09,0,0,0,.06,0H15.28a.08.08,0,0,0,.08,0c3.9-10,14.77-9.12,14.88-9.1a.09.09,0,0,0,.06,0,.06.06,0,0,0,0-.06V35.42s0-.08-.09-.07a.08.08,0,0,0-.08.07V47c-.77-.06-11.1-.61-14.93,9.16H4.93c0-.16,0-20.79,0-20.79a.09.09,0,0,0-.08-.09A.09.09,0,0,0,4.77,35.37Z" transform="translate(0 0)"/></g><g id="Group_12" data-name="Group 12"><path id="Path_38" data-name="Path 38" class="cls-4" d="M13.89,63.05H4.67a1,1,0,0,1,1-1h7.15a1,1,0,0,1,1,1Z" transform="translate(0 0)"/><path id="Path_39" data-name="Path 39" class="cls-4" d="M13.89,65.19H4.67a1,1,0,0,1,1-1h7.15a1,1,0,0,1,1,1Z" transform="translate(0 0)"/><path id="Path_40" data-name="Path 40" class="cls-4" d="M13.89,67.32H4.67a1,1,0,0,1,1-1h7.15a1,1,0,0,1,1,1h0Z" transform="translate(0 0)"/></g><path id="Path_41" data-name="Path 41" class="cls-7" d="M7,29.92c0,.79-.36,1.09-.8,1.09h0c-.43,0-.79-.3-.79-1.09V20.38c0-.79.36-1,.79-1h0c.44,0,.8.22.8,1Z" transform="translate(0 0)"/><path id="Path_42" data-name="Path 42" class="cls-16" d="M27.16,28.34c-.6,1.65-1.3,4.43-1.78,6.4h4c.08-.36.16-.74.23-1.13v-8A4.18,4.18,0,0,0,27.16,28.34ZM9.66,26.56l1.13,2.15-2,2-1.53-1L6.31,32,6,32.73a4.07,4.07,0,0,0-.42,2h4.57l.43-1.23-.61-1.74,1.94-2,2.83,1.47.42-.28-5.05-5Z" transform="translate(0 0)"/><path id="Path_43" data-name="Path 43" class="cls-16" d="M16,16.65h-.21L8,34.21v.49H9.79l7.94-18.06Zm3.28,0L11.29,34.71h5.08l8-18.07Z" transform="translate(0 0)"/><g id="Group_13" data-name="Group 13"><path id="Path_44" data-name="Path 44" class="cls-3" d="M37.77,54.93a12,12,0,0,1,7.56,13.45l1.32.25a13.79,13.79,0,0,0,.23-2.48,13.39,13.39,0,0,0-8.64-12.47Z" transform="translate(0 0)"/></g><path id="Path_45" data-name="Path 45" class="cls-11" d="M53.69,37.54h2.65V35.78H53.69Zm3.16,0h3.21V35.78H56.85Zm5-1.76H60.43v1.76h1.94Z" transform="translate(0 0)"/><rect id="Rectangle_11" data-name="Rectangle 11" class="cls-7" x="56.33" y="35.47" width="0.76" height="6.03"/><rect id="Rectangle_12" data-name="Rectangle 12" class="cls-7" x="59.83" y="35.47" width="0.76" height="6.03"/><rect id="Rectangle_13" data-name="Rectangle 13" class="cls-7" x="61.74" y="34.39" width="1.95" height="6.55" transform="translate(-9.63 26.83) rotate(-22.47)"/><path id="Path_46" data-name="Path 46" class="cls-3" d="M140.89,19.3s-.23-7.42-.6-7.8c.07-.52-4-6.7-4-6.7S117.89-2.65,92.15,1c0,0-11.85,4.52-18.3,9.79L61.53,23.37a26.1,26.1,0,0,0,.72,13.1,26.71,26.71,0,0,0,7,11.09L86.6,50.64c8.3.54,20.58-2.66,20.58-2.66C132.69,32,140.89,19.3,140.89,19.3Z" transform="translate(0 0)"/><path id="Path_47" data-name="Path 47" class="cls-3" d="M140.89,19.3s-.23-7.42-.6-7.8c.07-.52-4-6.7-4-6.7S117.89-2.65,92.15,1c0,0-11.85,4.52-18.3,9.79L61.53,23.37a26.1,26.1,0,0,0,.72,13.1,26.71,26.71,0,0,0,7,11.09L86.6,50.64c8.3.54,20.58-2.66,20.58-2.66C132.69,32,140.89,19.3,140.89,19.3Z" transform="translate(0 0)"/><path id="Path_48" data-name="Path 48" class="cls-17" d="M139.77,10.37c-4.24,4.44-14.87,14.25-35.56,26.16,0,0-13.42,3.62-22.38,3.51L63.25,38s-.25-.19-.65-.53a26.78,26.78,0,0,0,6.67,10.11L86.6,50.64c8.31.54,20.58-2.66,20.58-2.66,25.51-16,33.71-28.68,33.71-28.68s-.23-7.42-.6-7.81A3.58,3.58,0,0,0,139.77,10.37Z" transform="translate(0 0)"/><path id="Path_49" data-name="Path 49" class="cls-6" d="M118,51.57h32.36l-6.15-14-1.81-26.79H139l-2.3,26.48Z" transform="translate(0 0)"/><path id="Path_50" data-name="Path 50" class="cls-7" d="M152.88,15.63H138.62l-.33,3.75h14.56Z" transform="translate(0 0)"/><path id="Path_51" data-name="Path 51" class="cls-4" d="M142.45,13.32l12.84-8.66H135.9l3.69,7.85Z" transform="translate(0 0)"/><g id="Group_26" data-name="Group 26"><g id="Group_14" data-name="Group 14"><path id="Path_52" data-name="Path 52" class="cls-18" d="M139.55,3.56v42.6a.34.34,0,0,0,.67,0V3.56a.34.34,0,0,0-.67,0Z" transform="translate(0 0)"/></g><g id="Group_15" data-name="Group 15"><path id="Path_53" data-name="Path 53" class="cls-18" d="M146.58,3.56v42.6a.34.34,0,0,0,.67,0V3.56a.34.34,0,0,0-.67,0Z" transform="translate(0 0)"/></g><g id="Group_16" data-name="Group 16"><path id="Path_54" data-name="Path 54" class="cls-18" d="M139.88,7.15a.24.24,0,0,0-.27.22.26.26,0,0,0,.23.28h7a.25.25,0,0,0,.27-.23.24.24,0,0,0-.22-.27h-7Z" transform="translate(0 0)"/></g><g id="Group_17" data-name="Group 17"><path id="Path_55" data-name="Path 55" class="cls-18" d="M139.88,11.05a.25.25,0,1,0,0,.5h7a.24.24,0,0,0,.27-.22.26.26,0,0,0-.22-.28h-7Z" transform="translate(0 0)"/></g><g id="Group_18" data-name="Group 18"><path id="Path_56" data-name="Path 56" class="cls-18" d="M139.88,15a.25.25,0,1,0,0,.5h7a.24.24,0,0,0,.27-.22.26.26,0,0,0-.22-.28h-7Z" transform="translate(0 0)"/></g><g id="Group_19" data-name="Group 19"><path id="Path_57" data-name="Path 57" class="cls-18" d="M139.88,18.87a.25.25,0,0,0-.27.23.25.25,0,0,0,.23.27h7a.25.25,0,0,0,.27-.23.24.24,0,0,0-.22-.27h-7Z" transform="translate(0 0)"/></g><g id="Group_20" data-name="Group 20"><path id="Path_58" data-name="Path 58" class="cls-18" d="M139.88,22.78a.25.25,0,0,0-.27.23.25.25,0,0,0,.23.27h7a.25.25,0,0,0,.27-.23.24.24,0,0,0-.22-.27h-7Z" transform="translate(0 0)"/></g><g id="Group_21" data-name="Group 21"><path id="Path_59" data-name="Path 59" class="cls-18" d="M139.88,26.69a.23.23,0,0,0-.27.22.26.26,0,0,0,.23.28h7a.25.25,0,0,0,.27-.23.24.24,0,0,0-.22-.27,0,0,0,0,0,0,0Z" transform="translate(0 0)"/></g><g id="Group_22" data-name="Group 22"><path id="Path_60" data-name="Path 60" class="cls-18" d="M139.88,30.59a.25.25,0,0,0,0,.5h7a.24.24,0,0,0,.27-.22.26.26,0,0,0-.22-.28h-7Z" transform="translate(0 0)"/></g><g id="Group_23" data-name="Group 23"><path id="Path_61" data-name="Path 61" class="cls-18" d="M139.88,34.5a.25.25,0,0,0-.06.5h7a.25.25,0,0,0,.22-.28.25.25,0,0,0-.22-.22Z" transform="translate(0 0)"/></g><g id="Group_24" data-name="Group 24"><path id="Path_62" data-name="Path 62" class="cls-18" d="M139.88,38.41a.24.24,0,0,0-.27.22.26.26,0,0,0,.23.28h7a.25.25,0,0,0,.27-.23.24.24,0,0,0-.22-.27h-7Z" transform="translate(0 0)"/></g><g id="Group_25" data-name="Group 25"><path id="Path_63" data-name="Path 63" class="cls-18" d="M139.88,42.31a.25.25,0,0,0,0,.5h7a.23.23,0,0,0,.27-.22.26.26,0,0,0-.22-.28h-7Z" transform="translate(0 0)"/></g></g><path id="Rectangle_14" data-name="Rectangle 14" class="cls-8" d="M81.25,57.56H95.94a.65.65,0,0,1,.65.65v8.32a.65.65,0,0,1-.65.65H81.25a.65.65,0,0,1-.65-.65V58.21A.65.65,0,0,1,81.25,57.56Z" transform="translate(0 0)"/><path id="Path_64" data-name="Path 64" class="cls-4" d="M93.83,7.18c26-3.9,44.65,2.68,45.91,3.14-1.1-1.93-3.5-5.52-3.5-5.52S117.89-2.65,92.15,1c0,0-11.85,4.52-18.3,9.79L61.53,23.37a24.56,24.56,0,0,0-.45,7l.45-.3,13-12.8C81.39,11.88,93.83,7.18,93.83,7.18Z" transform="translate(0 0)"/><g id="Group_30" data-name="Group 30" class="cls-19"><g id="Group_27" data-name="Group 27"><path id="Path_65" data-name="Path 65" class="cls-4" d="M85.2,49.15l.51-.44c-11.83-14-10.82-33.06-10.81-33.25l-.67,0C74.22,15.61,73.19,35,85.2,49.15Z" transform="translate(0 0)"/></g><g id="Group_28" data-name="Group 28"><path id="Path_66" data-name="Path 66" class="cls-4" d="M92.55,3.56c.13.2,13,19.61,14.68,41.21l.67-.05C106.24,22.94,93.24,3.39,93.1,3.19Z" transform="translate(0 0)"/></g><g id="Group_29" data-name="Group 29"><path id="Path_67" data-name="Path 67" class="cls-4" d="M128.25,4.61c.08.09,8.26,9.06,7.28,19.17l.67.06c1-10.41-7.37-19.59-7.46-19.68Z" transform="translate(0 0)"/></g></g><g id="Group_32" data-name="Group 32"><rect id="Rectangle_15" data-name="Rectangle 15" class="cls-7" x="97.18" y="38.53" width="39.19" height="13.06" rx="5.25"/><path id="Path_68" data-name="Path 68" class="cls-20" d="M97.33,42.66h38.9A5.36,5.36,0,0,0,131,38.53H102.54A5.36,5.36,0,0,0,97.33,42.66Z" transform="translate(0 0)"/><g id="Group_31" data-name="Group 31"><path id="Path_69" data-name="Path 69" class="cls-6" d="M106.81,51.3a.71.71,0,0,1-.71.71h0a.71.71,0,0,1-.71-.71V37.9a.71.71,0,0,1,.71-.71h0a.71.71,0,0,1,.71.71Z" transform="translate(0 0)"/><path id="Path_70" data-name="Path 70" class="cls-6" d="M127.47,51.3a.71.71,0,0,1-.71.71h0a.71.71,0,0,1-.71-.71V37.9a.71.71,0,0,1,.71-.71h0a.71.71,0,0,1,.71.71Z" transform="translate(0 0)"/><path id="Path_71" data-name="Path 71" class="cls-6" d="M117.05,51.3a.67.67,0,0,1-.62.71h0a.66.66,0,0,1-.62-.71V37.9a.68.68,0,0,1,.62-.71h0a.68.68,0,0,1,.62.71Z" transform="translate(0 0)"/></g><path id="Path_72" data-name="Path 72" class="cls-6" d="M128.92,34.46H122a3.15,3.15,0,0,0-3.15,3.15v.92h.94v-.92A2.21,2.21,0,0,1,122,35.4h6.95a2.21,2.21,0,0,1,2.21,2.21v.93a4.58,4.58,0,0,1,.83.08c.07,0,.11,0,.11,0v-1A3.15,3.15,0,0,0,128.92,34.46Zm-18.5,0h-7a3.15,3.15,0,0,0-3.15,3.15v1.22s.1.06.25.09a4,4,0,0,1,.69-.22V37.61a2.21,2.21,0,0,1,2.21-2.21h7a2.21,2.21,0,0,1,2.21,2.21v.92h.94v-.92a3.15,3.15,0,0,0-3.15-3.15Z" transform="translate(0 0)"/></g><path id="Path_73" data-name="Path 73" class="cls-6" d="M58.49,51.61h7.42L61,41.46H58.49Z" transform="translate(0 0)"/><path id="Path_74" data-name="Path 74" class="cls-21" d="M75.57,68a2,2,0,0,0,2-2h0V58.53a2,2,0,0,0-2-2h-.12L57.32,68Z" transform="translate(0 0)"/><path id="Path_75" data-name="Path 75" class="cls-22" d="M95.92,67.19a.67.67,0,0,0,.67-.67V58.23a.68.68,0,0,0-.12-.37L81.76,67.19Z" transform="translate(0 0)"/><path id="Path_76" data-name="Path 76" class="cls-3" d="M2,57.9v5.27h19.5a12.2,12.2,0,0,1,3-5.27Z" transform="translate(0 0)"/><path id="Path_77" data-name="Path 77" class="cls-4" d="M0,61.09v.5H22.06a12.49,12.49,0,0,1,1.34-2.36H2C.44,59.23,0,60.06,0,61.09Z" transform="translate(0 0)"/><path id="Path_78" data-name="Path 78" class="cls-4" d="M156.8,55.07h-109v-3.5H156.83Z" transform="translate(0 0)"/><path id="Path_79" data-name="Path 79" class="cls-23" d="M86.7,55.07h70.1l0-3.5H92.23Z" transform="translate(0 0)"/><g id="Group_33" data-name="Group 33"><path id="Path_80" data-name="Path 80" class="cls-4" d="M111.42,52.74c-6.62,0-13.3,3.86-13.3,12.46v3.13h2.14V65.2c0-7.61,6-10.31,11.16-10.31H138A10.65,10.65,0,0,1,148.21,65.2v3.13h2.15V65.2c0-7.13-6.51-12.46-12.33-12.46Z" transform="translate(0 0)"/></g><path id="Path_81" data-name="Path 81" class="cls-3" d="M35.71,13.47V54.35a12.52,12.52,0,0,1,2.4.72l.12-.11V16.86C38.23,14.53,37.21,13.66,35.71,13.47Z" transform="translate(0 0)"/></g></g></svg>