<svg id="Layer_1" data-name="Layer 1" xmlns="http://www.w3.org/2000/svg" viewBox="0 0 108.12 78.9"><defs><style>.cls-1{fill:#b2b2b2;}.cls-2{fill:#8b631b;}.cls-11,.cls-12,.cls-3{fill:#e7a905;}.cls-4,.cls-5{fill:#4a7085;}.cls-5{opacity:0.7;}.cls-11,.cls-12,.cls-5,.cls-8{isolation:isolate;}.cls-6{fill:#38332c;}.cls-7,.cls-8{fill:#fecd31;}.cls-8{opacity:0.3;}.cls-9{fill:#6b6b6b;}.cls-10{fill:#121312;}.cls-11{opacity:0.5;}.cls-12{opacity:0.1;}</style></defs><g id="Group_5945" data-name="Group 5945"><path id="Path_1" data-name="Path 1" class="cls-1" d="M105.53,77.94c0,.53-22.88,1-51.1,1s-51.1-.43-51.1-1,22.88-1,51.1-1S105.53,77.41,105.53,77.94Z" transform="translate(0 0)"/><g id="Group_8" data-name="Group 8"><rect id="Rectangle_2" data-name="Rectangle 2" class="cls-2" x="21.02" y="44.54" width="26.47" height="20.02"/><path id="Path_2" data-name="Path 2" class="cls-3" d="M17.88,45.17H29.51c10.18,0,16.31,7.85,16.31,16.5v5.07H94.89V25.07c0-3.19-1.66-4.65-4.65-4.65H72.35v12s-44-.13-48.48-.13-6.07,2.89-6.07,5.52S17.88,45.17,17.88,45.17Z" transform="translate(0 0)"/><g id="Group_1" data-name="Group 1"><path id="Path_3" data-name="Path 3" class="cls-3" d="M48.82,38.3h-1.2a3.19,3.19,0,0,1-3.14-3.24,2.46,2.46,0,0,1,0-.28V19.72c0-5.34,2.46-13,3.31-15.7s1.39-4,5-4H69.29c3.56,0,4.16,2,4.16,4.76V38.5Z" transform="translate(0 0)"/><path id="Path_4" data-name="Path 4" class="cls-4" d="M69.43,2.05H52.73c-1.45,0-2.55.27-3.44,3.15-.63,2.07-3.16,9.7-3.16,13.82V29.28c0,1.28.64,1.28,1.36,1.28l23.76-.06V4.6C71.25,3.27,71,2.05,69.43,2.05Z" transform="translate(0 0)"/><path id="Path_5" data-name="Path 5" class="cls-5" d="M71.25,11.77c-.75-.19-2.06.82-2.65,2.46-.9,2.49-2.09,7.83-2.09,7.83h-7c-1.83,0-2.34.54-2.34,1s.08,1.41.72,1.41h2.35v.45a4.61,4.61,0,0,0-2.93,3.61H50.15l3.44-9.66L53,17.3l1.75-1.79,2.56,1.33.38-.25-4.56-4.51-.38.53,1,2L52,16.39l-2-1.33-3.91,3.35c0,.21,0,.41,0,.61V29.28c0,1.28.64,1.28,1.36,1.28h4.22l0,0h5.4v0l12.79,0,.39-.86-.21-7.13s.68-3.15,1.2-5.95Z" transform="translate(0 0)"/><path id="Path_6" data-name="Path 6" class="cls-5" d="M59.36,2.05,46.83,30.51a2.94,2.94,0,0,0,.66,0h4.93L65,2.05Zm-3.85,0L46.13,23.38v5L57.7,2.05Z" transform="translate(0 0)"/></g><g id="Group_2" data-name="Group 2"><path id="Rectangle_3" data-name="Rectangle 3" class="cls-6" d="M84.28,23.05h6.63a1.38,1.38,0,0,1,1.38,1.39h0v2.8a1.38,1.38,0,0,1-1.38,1.38H84.28a1.38,1.38,0,0,1-1.38-1.38V24.43A1.38,1.38,0,0,1,84.28,23.05Z" transform="translate(0 0)"/><path id="Path_7" data-name="Path 7" class="cls-6" d="M91.14,23.05H90l-5.43,5.57h6.57a1.15,1.15,0,0,0,1.15-1.16V24.21a1.15,1.15,0,0,0-1.15-1.16Z" transform="translate(0 0)"/></g><g id="Group_3" data-name="Group 3"><path id="Path_8" data-name="Path 8" class="cls-7" d="M50.71,35.35h13.7c0-.6-.83-1.08-1.85-1.08h-10C51.55,34.27,50.71,34.75,50.71,35.35Z" transform="translate(0 0)"/><path id="Path_9" data-name="Path 9" class="cls-7" d="M50.71,38.57h13.7c0-.6-.83-1.08-1.85-1.08h-10c-1,0-1.86.48-1.86,1.08Z" transform="translate(0 0)"/><path id="Path_10" data-name="Path 10" class="cls-7" d="M50.71,41.79h13.7c0-.6-.83-1.08-1.85-1.08h-10c-1,0-1.86.48-1.86,1.08Z" transform="translate(0 0)"/><path id="Path_11" data-name="Path 11" class="cls-7" d="M50.71,45h13.7c0-.6-.83-1.09-1.85-1.09h-10c-1,0-1.86.49-1.86,1.09Z" transform="translate(0 0)"/><path id="Path_12" data-name="Path 12" class="cls-7" d="M50.71,48.22h13.7c0-.6-.83-1.08-1.85-1.08h-10c-1,0-1.86.49-1.86,1.08Z" transform="translate(0 0)"/><path id="Path_13" data-name="Path 13" class="cls-7" d="M50.71,51.44h13.7c0-.6-.83-1.08-1.85-1.08h-10c-1,0-1.86.48-1.86,1.08Z" transform="translate(0 0)"/><path id="Path_14" data-name="Path 14" class="cls-7" d="M50.71,54.66h13.7c0-.6-.83-1.08-1.85-1.08h-10c-1,0-1.86.48-1.86,1.08Z" transform="translate(0 0)"/></g><g id="Group_4" data-name="Group 4"><path id="Path_15" data-name="Path 15" class="cls-6" d="M23.31,42.35V34.49h0a1,1,0,0,0-.92,1.06v5.74a1,1,0,0,0,.92,1.06Z" transform="translate(0 0)"/><path id="Path_16" data-name="Path 16" class="cls-6" d="M25.49,42.35V34.49h0a1,1,0,0,0-.91,1.06v5.74a1,1,0,0,0,.91,1.06Z" transform="translate(0 0)"/><path id="Path_17" data-name="Path 17" class="cls-6" d="M27.67,42.35V34.49h0a1,1,0,0,0-.91,1.06v5.74a1,1,0,0,0,.91,1.06Z" transform="translate(0 0)"/><path id="Path_18" data-name="Path 18" class="cls-6" d="M29.86,42.35V34.49h0A1,1,0,0,0,29,35.55v5.74a1,1,0,0,0,.91,1.06Z" transform="translate(0 0)"/><path id="Path_19" data-name="Path 19" class="cls-6" d="M32,42.35V34.49h0a1,1,0,0,0-.91,1.06v5.74A1,1,0,0,0,32,42.35Z" transform="translate(0 0)"/><path id="Path_20" data-name="Path 20" class="cls-6" d="M34.23,42.35V34.49h0a1,1,0,0,0-.92,1.06v5.74a1,1,0,0,0,.92,1.06Z" transform="translate(0 0)"/></g><g id="Group_5" data-name="Group 5"><path id="Path_21" data-name="Path 21" class="cls-7" d="M74.22,24.47h6.34a.81.81,0,0,0-.86-.74H75.08A.81.81,0,0,0,74.22,24.47Z" transform="translate(0 0)"/><path id="Path_22" data-name="Path 22" class="cls-7" d="M74.22,26.23h6.34a.81.81,0,0,0-.86-.74H75.08A.81.81,0,0,0,74.22,26.23Z" transform="translate(0 0)"/><path id="Path_23" data-name="Path 23" class="cls-7" d="M74.22,28h6.34a.81.81,0,0,0-.86-.74H75.08a.8.8,0,0,0-.86.74Z" transform="translate(0 0)"/></g><path id="Path_24" data-name="Path 24" class="cls-8" d="M94.88,66.75V25.07a4.75,4.75,0,0,0-1.14-3.46L48.6,66.75Z" transform="translate(0 0)"/><path id="Path_25" data-name="Path 25" class="cls-9" d="M30.85,62.63A15.43,15.43,0,1,1,15.43,47.2,15.43,15.43,0,0,1,30.85,62.63Z" transform="translate(0 0)"/><path id="Path_26" data-name="Path 26" class="cls-3" d="M30.19,62.62A14.77,14.77,0,1,1,15.42,47.86h0A14.76,14.76,0,0,1,30.19,62.62Z" transform="translate(0 0)"/><path id="Path_27" data-name="Path 27" class="cls-7" d="M29.4,62.62a14,14,0,1,1-14-14h0A14,14,0,0,1,29.4,62.62Z" transform="translate(0 0)"/><path id="Path_28" data-name="Path 28" class="cls-8" d="M25.17,52.6,5.4,72.36A14,14,0,0,0,25.51,53Z" transform="translate(0 0)"/><g id="Group_6" data-name="Group 6"><path id="Path_29" data-name="Path 29" class="cls-6" d="M108.11,57.38l-.82,0c0-.63-.09-1.24-.17-1.85l.81-.11c-.05-.32-.11-.65-.17-1l-.8.15c-.12-.61-.27-1.21-.44-1.8l.78-.23c-.09-.3-.19-.61-.3-.92l-.77.27c-.21-.59-.44-1.16-.7-1.72l.74-.35c-.13-.28-.28-.57-.43-.86l-.72.38c-.3-.55-.61-1.08-1-1.6l.67-.45c-.18-.27-.36-.54-.55-.79l-.66.48a14.58,14.58,0,0,0-1.17-1.43l.6-.55c-.21-.24-.43-.48-.66-.7l-.58.57c-.44-.44-.89-.85-1.37-1.25l.52-.62c-.24-.2-.5-.4-.76-.6l-.49.65a18,18,0,0,0-1.54-1l.42-.7-.83-.48-.39.72a18.4,18.4,0,0,0-1.68-.8l.32-.75c-.3-.13-.6-.25-.9-.35l-.28.76c-.58-.21-1.17-.39-1.77-.55l.2-.78c-.32-.08-.64-.16-1-.22l-.16.8c-.6-.12-1.21-.21-1.83-.28l.08-.81-1-.07,0,.81c-.34,0-.67,0-1,0h-.46l0-.86-1,.05.07.86c-.47,0-.94.08-1.4.15l-.12-.81-.95.16.15.8q-.91.2-1.8.45l-.23-.78-.92.3.27.77c-.58.21-1.15.45-1.71.71L80,40.44c-.29.13-.59.28-.87.43l.39.72a18,18,0,0,0-1.59.95l-.45-.67c-.27.18-.54.36-.8.56l.49.65q-.75.56-1.44,1.17l-.54-.6-.7.67.57.58a18.14,18.14,0,0,0-1.25,1.37l-.62-.52c-.2.25-.4.5-.6.77l.65.48c-.37.5-.71,1-1,1.54l-.7-.42L71,49l.72.39A18.52,18.52,0,0,0,70.9,51l-.75-.32c-.13.3-.25.6-.35.91l.76.27A17.45,17.45,0,0,0,70,53.67l-.79-.2c-.07.3-.15.62-.21.94l.8.16a18.53,18.53,0,0,0-.27,1.84l-.81-.08c0,.32,0,.64-.07,1l.81,0c0,.32,0,.63,0,1s0,.61,0,.91l-.81,0c0,.31,0,.64.07,1l.81-.08A18.51,18.51,0,0,0,69.81,62l-.8.16.21.94.79-.2a18.25,18.25,0,0,0,.54,1.78l-.77.27c.11.3.23.61.35.9l.75-.31a18.46,18.46,0,0,0,.79,1.68l-.71.38c.14.28.3.56.47.85l.7-.42c.32.53.67,1,1,1.55l-.65.48c.19.26.39.51.6.76l.63-.51A18,18,0,0,0,75,71.63l-.57.58c.22.23.46.45.7.66l.54-.6c.46.42.94.81,1.43,1.18l-.48.65c.26.2.52.38.79.56l.45-.67c.51.34,1,.66,1.59,1l-.38.71c.29.16.58.3.86.44l.35-.73c.56.26,1.13.5,1.71.71l-.27.77c.31.11.61.21.92.3l.23-.77a18.21,18.21,0,0,0,1.8.45l-.16.8,1,.17.12-.8c.61.09,1.22.15,1.85.18l0,.81c.32,0,.65,0,1,0v-.81h0c.62,0,1.22,0,1.82-.09l.07.81q.49,0,1-.12l-.11-.8c.61-.09,1.22-.21,1.82-.36l.2.79.93-.25-.23-.79a16.59,16.59,0,0,0,1.75-.62l.31.76.88-.4-.34-.73c.56-.27,1.1-.56,1.63-.87l.42.7c.27-.16.55-.34.82-.52L98.86,74c.51-.34,1-.71,1.49-1.1l.52.63c.25-.21.5-.42.73-.63l-.54-.6A18,18,0,0,0,102.37,71l.6.55c.21-.23.43-.48.64-.73l-.63-.52c.39-.47.76-1,1.11-1.48l.67.45c.18-.27.36-.54.52-.82l-.7-.42a18.24,18.24,0,0,0,.89-1.63l.73.35c.14-.29.27-.59.4-.88l-.75-.32a18.07,18.07,0,0,0,.63-1.74l.78.24c.1-.31.18-.63.26-.94l-.79-.2c.15-.6.27-1.21.37-1.82l.8.12c0-.31.09-.64.12-1l-.81-.08c.06-.61.1-1.23.1-1.85h.81v-.06C108.13,58,108.12,57.68,108.11,57.38Z" transform="translate(0 0)"/><path id="Path_30" data-name="Path 30" class="cls-10" d="M106.46,58.28A18.07,18.07,0,1,1,88.39,40.21a18.07,18.07,0,0,1,18.07,18.07Z" transform="translate(0 0)"/><path id="Path_31" data-name="Path 31" class="cls-7" d="M97,58.28a8.63,8.63,0,1,1-8.63-8.63h0A8.63,8.63,0,0,1,97,58.28Z" transform="translate(0 0)"/><path id="Path_32" data-name="Path 32" class="cls-3" d="M96.32,58.28a7.93,7.93,0,1,1-7.93-7.93h0A7.93,7.93,0,0,1,96.32,58.28Z" transform="translate(0 0)"/><path id="Path_33" data-name="Path 33" class="cls-7" d="M92.15,58.28a3.76,3.76,0,1,1-3.76-3.76h0A3.76,3.76,0,0,1,92.15,58.28Z" transform="translate(0 0)"/><path id="Path_34" data-name="Path 34" class="cls-3" d="M89.83,58.28a1.44,1.44,0,1,1-1.44-1.44h0a1.43,1.43,0,0,1,1.44,1.44Z" transform="translate(0 0)"/><path id="Path_35" data-name="Path 35" class="cls-11" d="M84.84,57l-3.93-1.38a7.84,7.84,0,0,0-.42,1.92l4.15.36A4,4,0,0,1,84.84,57Zm7.22.41,4.07-.91a8,8,0,0,0-.67-1.84l-3.71,1.88a3.93,3.93,0,0,1,.31.87Zm0,1.39a3.31,3.31,0,0,1-.17.69h0c0,.07,0,.13-.07.19l3.85,1.6a7.85,7.85,0,0,0,.51-1.9Zm-5.9-3.62-2.41-3.4a8.53,8.53,0,0,0-1.44,1.31l3.17,2.71a3.69,3.69,0,0,1,.68-.63Zm4.25,6.2h0a.1.1,0,0,1,0,0L92.6,65a7.69,7.69,0,0,0,1.51-1.22l-3-2.88a3.28,3.28,0,0,1-.64.53Zm3.22-9a8,8,0,0,0-1.59-1.12l-2,3.68a4.12,4.12,0,0,1,.76.53ZM88.53,62h-.36l-.24,4.15.46,0a7.62,7.62,0,0,0,1.5-.14L89.1,62a5.51,5.51,0,0,1-.57.06Zm.22-7.5h.07l.48-4.14a7.75,7.75,0,0,0-2.84.19l1,4a3.56,3.56,0,0,1,.92-.11,1.45,1.45,0,0,1,.36,0Zm-5.32,9.94a8.51,8.51,0,0,0,1.68,1l1.72-3.8a3.55,3.55,0,0,1-.79-.48Zm1.34-5.15-4,1.15a7.94,7.94,0,0,0,.77,1.8l3.6-2.1a3.85,3.85,0,0,1-.37-.86Z" transform="translate(0 0)"/></g><path id="Path_36" data-name="Path 36" class="cls-3" d="M49.09,51.75c0-1.06-.79-1.61-1.89-1.36s-36.27,8.08-36.27,8.08A2.57,2.57,0,0,0,8.38,61v3.21a2.57,2.57,0,0,0,2.55,2.55H49.09Z" transform="translate(0 0)"/><path id="Path_37" data-name="Path 37" class="cls-12" d="M49.09,66.78v-15c0-1.06-.79-1.61-1.89-1.36l-9,2L23.8,66.78Z" transform="translate(0 0)"/><path id="Path_38" data-name="Path 38" class="cls-6" d="M18.25,62.62a2.83,2.83,0,1,1-2.82-2.82h0A2.83,2.83,0,0,1,18.25,62.62Z" transform="translate(0 0)"/><path id="Path_39" data-name="Path 39" class="cls-3" d="M16.57,62.62a1.15,1.15,0,1,1-1.15-1.14,1.14,1.14,0,0,1,1.15,1.14Z" transform="translate(0 0)"/><path id="Path_40" data-name="Path 40" class="cls-7" d="M48,53.25a1.18,1.18,0,1,1-1.18-1.18A1.19,1.19,0,0,1,48,53.25Z" transform="translate(0 0)"/><path id="Path_41" data-name="Path 41" class="cls-7" d="M48,64.19a1.18,1.18,0,0,1-2.36,0,1.18,1.18,0,0,1,2.36,0Z" transform="translate(0 0)"/><path id="Path_42" data-name="Path 42" class="cls-3" d="M59.05,1a1,1,0,0,1-1,1H43.59a1,1,0,0,1-1-1h0a1,1,0,0,1,1-1H58.05a1,1,0,0,1,1,1Z" transform="translate(0 0)"/><g id="Group_7" data-name="Group 7"><path id="Path_43" data-name="Path 43" class="cls-7" d="M65.18,59a.51.51,0,1,0,1,0h0A22.73,22.73,0,0,1,95.82,37.39a.5.5,0,0,0,.64-.33.52.52,0,0,0-.33-.64A23.73,23.73,0,0,0,66.31,51.81,24,24,0,0,0,65.18,59Z" transform="translate(0 0)"/></g></g></g></svg>